<svg width="24" height="24" viewBox="0 0 24 24" fill="none" xmlns="http://www.w3.org/2000/svg">
<path fill-rule="evenodd" clip-rule="evenodd" d="M12.2023 5.01899C12.0407 4.98703 11.8737 4.99551 11.7161 5.04366C11.5586 5.09181 11.4154 5.17815 11.2992 5.29499C10.9098 5.68667 10.2767 5.68855 9.88499 5.29918C9.49331 4.90982 9.49144 4.27665 9.8808 3.88497C10.2293 3.53444 10.6589 3.27544 11.1316 3.13099C11.6043 2.98653 12.1053 2.9611 12.5902 3.05696C13.0751 3.15282 13.5288 3.36699 13.9109 3.68044C14.2931 3.99389 14.5919 4.39691 14.7807 4.85366C14.9696 5.31042 15.0427 5.80676 14.9935 6.29857C14.9443 6.79038 14.7744 7.26241 14.4988 7.67271C14.2232 8.08301 13.8505 8.41887 13.4138 8.65042C12.9779 8.8816 12.4916 9.00166 11.9982 8.99998L11.9958 8.99997L12 9L11.9982 8.99998H3C2.44772 8.99998 2 8.55227 2 7.99998C2 7.4477 2.44772 6.99998 3 6.99998H12.0042C12.169 7.00067 12.3313 6.96066 12.4769 6.88347C12.6224 6.80629 12.7467 6.69434 12.8385 6.55757C12.9304 6.4208 12.987 6.26346 13.0034 6.09952C13.0198 5.93559 12.9955 5.77014 12.9325 5.61789C12.8696 5.46564 12.77 5.3313 12.6426 5.22681C12.5152 5.12233 12.364 5.05094 12.2023 5.01899ZM19.7889 8.02896C19.5472 7.98075 19.2973 7.99285 19.0614 8.06419C18.8254 8.13553 18.6107 8.26392 18.4362 8.43798C18.0452 8.82801 17.412 8.82721 17.022 8.43619C16.632 8.04518 16.6328 7.41201 17.0238 7.02198C17.431 6.61582 17.932 6.31626 18.4825 6.1498C19.033 5.98333 19.6161 5.9551 20.1801 6.06758C20.7441 6.18007 21.2717 6.42981 21.7162 6.79472C22.1608 7.15963 22.5085 7.62846 22.7288 8.15975C22.949 8.69104 23.0349 9.26841 22.9789 9.84081C22.9229 10.4132 22.7267 10.963 22.4077 11.4415C22.0886 11.92 21.6566 12.3126 21.1498 12.5844C20.6429 12.8562 20.0769 12.999 19.5018 13L19.5 13H2C1.44772 13 1 12.5523 1 12C1 11.4477 1.44772 11 2 11H19.4989C19.7452 10.9994 19.9875 10.9383 20.2045 10.8219C20.4217 10.7054 20.6069 10.5371 20.7436 10.3321C20.8803 10.127 20.9644 9.89136 20.9884 9.64605C21.0124 9.40074 20.9756 9.1533 20.8812 8.9256C20.7868 8.6979 20.6378 8.49698 20.4473 8.34059C20.2567 8.1842 20.0306 8.07716 19.7889 8.02896ZM15.7296 15C16.2231 14.9983 16.7094 15.1184 17.1454 15.3496C17.582 15.5811 17.9547 15.917 18.2303 16.3273C18.5059 16.7376 18.6758 17.2096 18.725 17.7014C18.7742 18.1932 18.7011 18.6896 18.5123 19.1463C18.3234 19.6031 18.0246 20.0061 17.6425 20.3195C17.2603 20.633 16.8066 20.8472 16.3218 20.943C15.8369 21.0389 15.3358 21.0135 14.8631 20.869C14.335 20.7076 14.0377 20.1486 14.1991 19.6204C14.3605 19.0922 14.9195 18.7949 15.4477 18.9563C15.6052 19.0045 15.7722 19.0129 15.9339 18.981C16.0955 18.949 16.2467 18.8777 16.3741 18.7732C16.5015 18.6687 16.6011 18.5343 16.664 18.3821C16.727 18.2298 16.7514 18.0644 16.735 17.9005C16.7186 17.7365 16.6619 17.5792 16.5701 17.4424C16.4782 17.3056 16.354 17.1937 16.2084 17.1165C16.0629 17.0393 15.9005 16.9993 15.7357 17L15.7315 17H8.73C8.17771 17 7.73 16.5523 7.73 16C7.73 15.4477 8.17771 15 8.73 15H15.7296Z" fill="#202020"/>
<path d="M5 15H3C2.44772 15 2 15.4477 2 16C2 16.5523 2.44772 17 3 17H5C5.55228 17 6 16.5523 6 16C6 15.4477 5.55228 15 5 15Z" fill="#202020"/>
</svg>
