<svg width="24" height="24" viewBox="0 0 24 24" fill="none" xmlns="http://www.w3.org/2000/svg">
<path d="M12.0272 15.1244L12.0272 15.1242C12.0223 14.5397 11.8653 13.9664 11.5716 13.4599C11.2819 12.9606 10.869 12.543 10.372 12.2463L15.1378 4.04304C15.3356 3.70252 15.2182 3.26729 14.8757 3.07065C14.5329 2.87388 14.0943 2.9904 13.8963 3.33111L9.00596 11.7449C8.36363 11.6055 7.69638 11.6266 7.06415 11.8066C6.42611 11.9883 5.84409 12.3259 5.37133 12.7887C4.06905 14.0361 3.47034 16.1151 3.1976 17.9083C2.92467 19.7027 2.97733 21.2171 2.98221 21.3409L2.98221 21.341C2.98963 21.525 3.0685 21.699 3.20224 21.8265C3.33598 21.954 3.51419 22.0251 3.69951 22.025H14.0777C14.2282 22.025 14.3749 21.978 14.4971 21.8905C14.6192 21.8031 14.7106 21.6797 14.7582 21.5378C14.8058 21.3959 14.8073 21.2427 14.7624 21.0999C14.7175 20.9572 14.6285 20.8321 14.508 20.7423C13.2892 19.8341 12.6685 18.4402 12.3528 17.266C12.0372 16.0922 12.0272 15.1416 12.0272 15.1244ZM8.48763 13.0845L8.48762 13.0846L8.48992 13.0847C9.03763 13.0906 9.56191 13.3061 9.95368 13.6862C10.3453 14.0662 10.5744 14.5815 10.5933 15.1248C10.5933 15.1501 10.5946 15.2516 10.6029 15.4075L6.59317 13.6364C6.85221 13.431 7.14847 13.2764 7.46609 13.1812C7.79678 13.082 8.14403 13.0492 8.48763 13.0845ZM17.5385 15.1494C17.9345 15.1494 18.2558 14.8305 18.2558 14.4368C18.2558 14.0431 17.9345 13.7243 17.5385 13.7243H14.7693C14.3733 13.7243 14.052 14.0431 14.052 14.4368C14.052 14.8305 14.3733 15.1494 14.7693 15.1494H17.5385ZM20.3077 20.6499C20.7037 20.6499 21.025 20.331 21.025 19.9373C21.025 19.5436 20.7037 19.2248 20.3077 19.2248H17.5385C17.1425 19.2248 16.8212 19.5436 16.8212 19.9373C16.8212 20.331 17.1425 20.6499 17.5385 20.6499H20.3077ZM18.9231 17.8996C19.3191 17.8996 19.6404 17.5808 19.6404 17.1871C19.6404 16.7934 19.3191 16.4745 18.9231 16.4745H16.1539C15.7579 16.4745 15.4366 16.7934 15.4366 17.1871C15.4366 17.5808 15.7579 17.8996 16.1539 17.8996H18.9231ZM12.3636 20.5999H10.9375C10.5379 20.1933 10.2444 19.6997 10.0781 19.1621C9.97062 18.8145 9.66807 18.5372 9.29709 18.5372C8.87394 18.5372 8.52824 18.8966 8.62866 19.3118C8.73822 19.7648 8.91838 20.1995 9.16388 20.5999H7.6881C7.47279 19.9213 7.32205 19.2247 7.23761 18.5191C7.19278 18.1445 6.8807 17.8496 6.49946 17.8496C6.08839 17.8496 5.75672 18.1917 5.80146 18.6001C5.87553 19.2762 6.00763 19.9453 6.19655 20.5999H4.41031C4.42194 19.9679 4.47309 18.969 4.64889 17.9013C4.82585 16.8266 5.12883 15.6841 5.64362 14.7762L10.8261 17.0651C11.0753 18.3401 11.5999 19.546 12.3636 20.5999Z" fill="#202020" stroke="#202020" stroke-width="0.05"/>
</svg>
