<svg width="24" height="24" viewBox="0 0 24 24" fill="none" xmlns="http://www.w3.org/2000/svg">
<path d="M12.875 15.277C14.6417 15.0651 16.2571 14.2202 17.3925 12.9142C18.5278 11.6082 19.0978 9.93929 18.9863 8.24729C18.8747 6.55529 18.0902 4.96735 16.7923 3.80671C15.4943 2.64608 13.7806 2 12 2C10.2194 2 8.50567 2.64608 7.20775 3.80671C5.90983 4.96735 5.12526 6.55529 5.01375 8.24729C4.90224 9.93929 5.47218 11.6082 6.60754 12.9142C7.7429 14.2202 9.35834 15.0651 11.125 15.277V17.0015H7.58309C7.12299 17.0015 6.75001 17.3745 6.75001 17.8346C6.75001 18.2947 7.12299 18.6677 7.58309 18.6677H11.125V21.125C11.125 21.6082 11.5168 22 12 22C12.4832 22 12.875 21.6082 12.875 21.125V18.6677H16.4169C16.877 18.6677 17.25 18.2947 17.25 17.8346C17.25 17.3745 16.877 17.0015 16.4169 17.0015H12.875V15.277ZM6.75001 8.6707C6.75001 7.68209 7.05791 6.71568 7.63479 5.89368C8.21167 5.07169 9.0316 4.43102 9.99091 4.05269C10.9502 3.67437 12.0058 3.57538 13.0242 3.76825C14.0426 3.96112 14.9781 4.43718 15.7123 5.13623C16.4465 5.83528 16.9465 6.72593 17.1491 7.69554C17.3517 8.66515 17.2477 9.67018 16.8504 10.5835C16.453 11.4969 15.7801 12.2775 14.9167 12.8268C14.0534 13.376 13.0384 13.6692 12 13.6692C10.6081 13.6676 9.2737 13.1405 8.28948 12.2035C7.30527 11.2664 6.75163 9.9959 6.75001 8.6707Z" fill="#202020"/>
</svg>
