<svg width="24" height="24" viewBox="0 0 24 24" fill="none" xmlns="http://www.w3.org/2000/svg">
<path d="M18.7005 7.2108C16.9497 6.68385 15.1464 7.17567 13.9821 8.34374L11.5048 10.5482L10.1742 11.725H10.1829L7.8281 13.824C7.11903 14.5354 6.12108 14.834 5.09686 14.632C4.55433 14.5178 4.05513 14.2518 3.657 13.8648C3.25886 13.4778 2.97807 12.9856 2.84709 12.4452C2.73959 12.0069 2.73283 11.5498 2.82733 11.1085C2.92183 10.6671 3.11511 10.2532 3.39255 9.89782C3.67 9.54248 4.02435 9.25508 4.4288 9.05736C4.83326 8.85963 5.27723 8.75676 5.72715 8.75652C6.52376 8.75652 7.26785 9.06391 7.86312 9.66112L8.27455 10.0212C8.6072 10.3198 9.10618 10.3198 9.43883 10.0212C9.83276 9.6699 9.83276 9.05513 9.43883 8.70383L9.07117 8.38766C8.63279 7.94619 8.11155 7.59625 7.53758 7.35807C6.96361 7.1199 6.34828 6.9982 5.72715 7.00002C3.11846 7.00002 1 9.12539 1 11.725C1 14.3246 3.11846 16.45 5.72715 16.45C6.98772 16.45 8.17826 15.9582 9.0274 15.1063L11.5048 12.9106L11.5135 12.9194L12.8354 11.725H12.8266L15.1814 9.62599C15.8905 8.91461 16.8885 8.616 17.9127 8.818C19.0069 9.03756 19.9086 9.91581 20.1625 11.0048C20.27 11.4432 20.2767 11.9002 20.1822 12.3416C20.0877 12.7829 19.8944 13.1969 19.617 13.5522C19.3395 13.9075 18.9852 14.1949 18.5807 14.3927C18.1763 14.5904 17.7323 14.6933 17.2824 14.6935C16.4945 14.6935 15.7417 14.3861 15.1464 13.7889L14.7262 13.42C14.5664 13.2759 14.359 13.1962 14.1441 13.1962C13.9292 13.1962 13.7218 13.2759 13.562 13.42C13.168 13.7713 13.168 14.3861 13.562 14.7374L13.9296 15.0624C14.3692 15.5016 14.8908 15.8495 15.4647 16.0861C16.0385 16.3228 16.6532 16.4434 17.2736 16.4412C20.1362 16.4412 22.4035 13.8943 21.9395 10.9521C21.6769 9.20443 20.3901 7.7114 18.7005 7.2108Z" fill="#202020"/>
</svg>
