<svg width="24" height="24" viewBox="0 0 24 24" fill="none" xmlns="http://www.w3.org/2000/svg">
<path fill-rule="evenodd" clip-rule="evenodd" d="M15.4531 16.2667V16.5875C15.4531 16.8428 15.3494 17.0876 15.1648 17.2681C14.9802 17.4486 14.7298 17.55 14.4688 17.55C14.2077 17.55 13.9573 17.4486 13.7727 17.2681C13.5881 17.0876 13.4844 16.8428 13.4844 16.5875V16.2667C13.4844 16.0114 13.3807 15.7666 13.1961 15.5861C13.0115 15.4056 12.7611 15.3042 12.5 15.3042C12.2389 15.3042 11.9885 15.4056 11.8039 15.5861C11.6193 15.7666 11.5156 16.0114 11.5156 16.2667V16.5875C11.5156 16.8428 11.4119 17.0876 11.2273 17.2681C11.0427 17.4486 10.7923 17.55 10.5312 17.55C10.2702 17.55 10.0198 17.4486 9.83519 17.2681C9.65059 17.0876 9.54688 16.8428 9.54688 16.5875V16.2667C9.54774 15.5011 9.85915 14.9811 10.4128 14.4397C10.9664 13.8984 11.717 13.5939 12.5 13.5931C13.283 13.5939 14.0336 13.8984 14.5872 14.4397C15.1408 14.9811 15.4523 15.5011 15.4531 16.2667ZM12.5 9.85C10.6731 9.85202 8.92167 10.5625 7.62987 11.8256C6.33807 13.0887 5.61144 14.4804 5.60938 16.2667V16.5875C5.60938 16.8428 5.71309 17.0876 5.89769 17.2681C6.0823 17.4486 6.33268 17.55 6.59375 17.55C6.85482 17.55 7.1052 17.4486 7.28981 17.2681C7.47441 17.0876 7.57812 16.8428 7.57812 16.5875V16.2667C7.57812 14.9903 8.09668 14.0871 9.01971 13.1845C9.94274 12.282 11.1946 11.775 12.5 11.775C13.8054 11.775 15.0573 12.282 15.9803 13.1845C16.9033 14.0871 17.4219 14.9903 17.4219 16.2667V16.5875C17.4219 16.8428 17.5256 17.0876 17.7102 17.2681C17.8948 17.4486 18.1452 17.55 18.4062 17.55C18.6673 17.55 18.9177 17.4486 19.1023 17.2681C19.2869 17.0876 19.3906 16.8428 19.3906 16.5875V16.2667C19.3886 14.4804 18.6619 13.0887 17.3701 11.8256C16.0783 10.5625 14.3269 9.85202 12.5 9.85ZM23 16.5875V15.9458C23 13.2229 21.8938 10.9324 19.9246 9.00704C17.9555 7.08166 15.2848 6 12.5 6C9.71523 6 7.04451 7.08166 5.07538 9.00704C3.10625 10.9324 2 13.2229 2 15.9458V16.5875C2 16.8428 2.10371 17.0876 2.28832 17.2681C2.47292 17.4486 2.7233 17.55 2.98438 17.55C3.24545 17.55 3.49583 17.4486 3.68043 17.2681C3.86504 17.0876 3.96875 16.8428 3.96875 16.5875V15.9458C3.96875 13.7335 4.86758 11.9326 6.4675 10.3682C8.06742 8.80385 10.2374 7.925 12.5 7.925C14.7626 7.925 16.9326 8.80385 18.5325 10.3682C20.1324 11.9326 21.0312 13.7335 21.0312 15.9458V16.5875C21.0312 16.8428 21.135 17.0876 21.3196 17.2681C21.5042 17.4486 21.7546 17.55 22.0156 17.55C22.2767 17.55 22.5271 17.4486 22.7117 17.2681C22.8963 17.0876 23 16.8428 23 16.5875Z" fill="#202020"/>
</svg>
