<svg width="24" height="24" viewBox="0 0 24 24" fill="none" xmlns="http://www.w3.org/2000/svg">
<path fill-rule="evenodd" clip-rule="evenodd" d="M15.2312 3.81818C15.2312 3.36631 15.5975 3 16.0494 3H20.1818C20.6337 3 21 3.36631 21 3.81818V7.90317C21 8.35504 20.6337 8.72135 20.1818 8.72135C19.7299 8.72135 19.3636 8.35504 19.3636 7.90317V5.77773L15.8371 9.26344C16.94 10.5842 17.4924 12.2059 17.4925 13.8266C17.4937 14.7702 17.3063 15.7045 16.9413 16.5758C16.5763 17.4471 16.041 18.2378 15.3666 18.9029C12.5376 21.699 7.95451 21.6989 5.12566 18.9025C2.29145 16.1009 2.29145 11.554 5.12566 8.75228C7.72745 6.18037 11.8132 5.97384 14.6533 8.13269L18.1906 4.63636H16.0494C15.5975 4.63636 15.2312 4.27005 15.2312 3.81818ZM14.0947 9.79913C11.8952 7.75043 8.42738 7.7894 6.27604 9.91603C4.0898 12.0772 4.0898 15.5777 6.27604 17.7388C8.46753 19.9051 12.0251 19.9051 14.2166 17.7388L14.2173 17.7381C14.7383 17.2243 15.151 16.6144 15.4321 15.9435C15.7131 15.2727 15.8572 14.5539 15.8561 13.8283L15.8561 13.8272C15.8561 12.4124 15.3111 10.998 14.2166 9.91603C14.2013 9.90095 14.186 9.88596 14.1706 9.87109C14.1506 9.85438 14.1312 9.83657 14.1125 9.81765C14.1065 9.81155 14.1005 9.80537 14.0947 9.79913ZM17.4925 13.8266C17.4925 13.8268 17.4925 13.827 17.4925 13.8272H16.6743L17.4925 13.826C17.4925 13.8262 17.4925 13.8264 17.4925 13.8266Z" fill="#202020"/>
</svg>
