<svg width="24" height="24" viewBox="0 0 24 24" fill="none" xmlns="http://www.w3.org/2000/svg">
<path d="M14.1667 10.5C14.1667 10.3674 14.1052 10.2402 13.9958 10.1464C13.8864 10.0527 13.738 10 13.5833 10C13.4286 10 13.2803 10.0527 13.1709 10.1464C13.0615 10.2402 13 10.3674 13 10.5V15.5C13 15.6326 13.0615 15.7598 13.1709 15.8536C13.2803 15.9473 13.4286 16 13.5833 16C13.738 16 13.8864 15.9473 13.9958 15.8536C14.1052 15.7598 14.1667 15.6326 14.1667 15.5V10.5Z" fill="#202020"/>
<path d="M11.25 10C11.4047 10 11.553 10.0527 11.6624 10.1464C11.7718 10.2402 11.8333 10.3674 11.8333 10.5V15.5C11.8333 15.6326 11.7718 15.7598 11.6624 15.8536C11.553 15.9473 11.4047 16 11.25 16C11.0952 16 10.9469 15.9473 10.8375 15.8536C10.7281 15.7598 10.6666 15.6326 10.6666 15.5V10.5C10.6666 10.3674 10.7281 10.2402 10.8375 10.1464C10.9469 10.0527 11.0952 10 11.25 10Z" fill="#202020"/>
<path d="M9.50004 10.5C9.50004 10.3674 9.43858 10.2402 9.32919 10.1464C9.21979 10.0527 9.07142 10 8.91671 10C8.762 10 8.61362 10.0527 8.50423 10.1464C8.39483 10.2402 8.33337 10.3674 8.33337 10.5V15.5C8.33337 15.6326 8.39483 15.7598 8.50423 15.8536C8.61362 15.9473 8.762 16 8.91671 16C9.07142 16 9.21979 15.9473 9.32919 15.8536C9.43858 15.7598 9.50004 15.6326 9.50004 15.5V10.5Z" fill="#202020"/>
<path d="M8.84375 5.5C8.22215 5.5 7.62601 5.71165 7.18647 6.0884C6.74693 6.46515 6.5 6.97613 6.5 7.50893V16.6607C6.5 17.0159 6.66462 17.3566 6.95765 17.6077C7.25067 17.8589 7.6481 18 8.0625 18H14.3125C14.7269 18 15.1243 17.8589 15.4174 17.6077C15.7104 17.3566 15.875 17.0159 15.875 16.6607V15.3214H16.6562C17.2779 15.3214 17.874 15.1098 18.3135 14.733C18.7531 14.3563 19 13.8453 19 13.3125V10.1875C19 9.6547 18.7531 9.14372 18.3135 8.76697C17.874 8.39023 17.2779 8.17857 16.6562 8.17857H15.875V7.50893C15.875 6.97613 15.6281 6.46515 15.1885 6.0884C14.749 5.71165 14.1529 5.5 13.5312 5.5H8.84375ZM15.875 9.07143H16.6562C17.375 9.07143 17.9583 9.57143 17.9583 10.1875V13.3125C17.9583 13.9286 17.375 14.4286 16.6562 14.4286H15.875V9.07143ZM7.54167 7.50893C7.54167 6.89286 8.125 6.39286 8.84375 6.39286H13.5312C14.25 6.39286 14.8333 6.89286 14.8333 7.50893V8.17857H7.54167V7.50893ZM7.54167 9.07143H14.8333V16.6607C14.8333 16.7791 14.7785 16.8927 14.6808 16.9764C14.5831 17.0601 14.4506 17.1071 14.3125 17.1071H8.0625C7.92437 17.1071 7.79189 17.0601 7.69422 16.9764C7.59654 16.8927 7.54167 16.7791 7.54167 16.6607V9.07143Z" fill="#202020" stroke="#202020" stroke-width="0.157143"/>
<path fill-rule="evenodd" clip-rule="evenodd" d="M12.0006 2C6.48546 2 2 6.48458 2 12.0013C2 17.5154 6.48546 22 12.0006 22C17.5133 22 22 17.5154 22 12.0013C22 6.48584 17.5133 2 12.0006 2ZM20.9301 12.0982C20.9314 13.9355 20.3677 15.7228 19.3244 17.2204C19.1189 17.5154 18.6989 17.5355 18.4452 17.2808L6.78792 5.58009C6.53464 5.32588 6.55571 4.90685 6.85031 4.70195C8.34356 3.66334 10.1223 3.10226 11.9504 3.10258C16.9017 3.10258 20.9301 7.13656 20.9301 12.0982ZM3.17536 11.9673C3.17536 10.042 3.78613 8.25615 4.82219 6.7973C5.02931 6.50565 5.44681 6.48764 5.69905 6.74128L17.2702 18.3766C17.521 18.6288 17.5026 19.0435 17.2132 19.2502C15.7166 20.319 13.9195 20.8972 12.0709 20.8949C7.16481 20.8949 3.17536 16.8886 3.17536 11.9673Z" fill="#202020" stroke="#202020" stroke-width="0.606061"/>
</svg>
