<svg width="24" height="24" viewBox="0 0 24 24" fill="none" xmlns="http://www.w3.org/2000/svg">
<path d="M13.5931 11.6257C13.7709 11.4378 15.9634 8.99555 15.9634 8.99555C16.0346 8.92014 16.1192 8.86031 16.2123 8.81948C16.3054 8.77866 16.4052 8.75765 16.506 8.75765C16.6068 8.75765 16.7066 8.77866 16.7998 8.81948C16.8929 8.86031 16.9774 8.92014 17.0486 8.99555L17.0854 9.03442C17.2632 9.22229 17.5575 9.22229 17.7354 9.03442C17.9132 8.84655 17.9132 8.5356 17.7354 8.34773L17.6986 8.30886C17.3817 7.97585 16.9529 7.78891 16.506 7.78891C16.0591 7.78891 15.6303 7.97585 15.3135 8.30886L12.9432 10.939C12.7654 11.1269 12.7654 11.4378 12.9432 11.6257C13.121 11.8136 13.4153 11.8136 13.5931 11.6257ZM10.5274 8.30886L10.4906 8.34773C10.3128 8.5356 10.3128 8.84655 10.4906 9.03442C10.6685 9.22229 10.9628 9.22229 11.1406 9.03442L11.1774 8.99555C11.4925 8.66076 11.6695 8.20775 11.6695 7.73554C11.6695 7.26333 11.4925 6.81033 11.1774 6.47554L11.1467 6.44315C10.9628 6.2488 10.6685 6.2488 10.4906 6.44315C10.3128 6.63101 10.3128 6.94197 10.4906 7.12983L10.5274 7.1687C10.8217 7.47965 10.8217 7.99791 10.5274 8.30886ZM14.8194 11.548L14.1694 12.2346C13.9916 12.4225 13.9916 12.7335 14.1694 12.9213C14.3473 13.1092 14.6416 13.1092 14.8194 12.9213L15.4693 12.2346C15.5405 12.1592 15.6251 12.0994 15.7182 12.0586C15.8113 12.0178 15.9111 11.9967 16.0119 11.9967C16.1127 11.9967 16.2125 12.0178 16.3057 12.0586C16.3988 12.0994 16.4833 12.1592 16.5545 12.2346L17.2167 12.9343C17.3945 13.1222 17.6888 13.1222 17.8666 12.9343C18.0445 12.7464 18.0445 12.4355 17.8666 12.2476L17.2045 11.548C16.8876 11.2149 16.4588 11.028 16.0119 11.028C15.565 11.028 15.1362 11.2149 14.8194 11.548ZM13.5931 7.66104L11.7169 9.64337C11.5391 9.83123 11.5391 10.1422 11.7169 10.3301C11.8947 10.5179 12.189 10.5179 12.3668 10.3301L14.243 8.34773C14.5582 8.01294 14.7351 7.55993 14.7351 7.08772C14.7351 6.61552 14.5582 6.16251 14.243 5.82772L13.5931 5.14103C13.5066 5.05067 13.3898 5 13.2681 5C13.1465 5 13.0297 5.05067 12.9432 5.14103C12.7654 5.3289 12.7654 5.63985 12.9432 5.82772L13.5931 6.51441C13.8874 6.83184 13.8874 7.35009 13.5931 7.66104Z" fill="#202020"/>
<path fill-rule="evenodd" clip-rule="evenodd" d="M12.0006 2C6.48546 2 2 6.48458 2 12.0013C2 17.5154 6.48546 22 12.0006 22C17.5133 22 22 17.5154 22 12.0013C22 6.48584 17.5133 2 12.0006 2ZM20.9301 12.0982C20.9314 13.9355 20.3677 15.7228 19.3244 17.2204C19.1189 17.5154 18.6989 17.5355 18.4452 17.2808L6.78792 5.58009C6.53464 5.32588 6.55571 4.90685 6.85031 4.70195C8.34356 3.66334 10.1223 3.10226 11.9504 3.10258C16.9017 3.10258 20.9301 7.13656 20.9301 12.0982ZM3.17536 11.9673C3.17536 10.042 3.78613 8.25615 4.82219 6.7973C5.02931 6.50565 5.44681 6.48764 5.69905 6.74128L17.2702 18.3766C17.521 18.6288 17.5026 19.0435 17.2132 19.2502C15.7166 20.319 13.9195 20.8972 12.0709 20.8949C7.16481 20.8949 3.17536 16.8886 3.17536 11.9673Z" fill="#202020" stroke="#202020" stroke-width="0.606061"/>
<path fill-rule="evenodd" clip-rule="evenodd" d="M7.79343 10.709C7.99191 9.9647 8.92206 9.71487 9.46677 10.2596L13.7403 14.5331C14.285 15.0778 14.0352 16.008 13.2909 16.2065L7.4633 17.7605C6.72052 17.9586 6.04133 17.2794 6.23941 16.5366L7.79343 10.709ZM13.0332 15.2402L8.75966 10.9667L7.20564 16.7943L13.0332 15.2402Z" fill="#202020"/>
</svg>
