<svg width="24" height="24" viewBox="0 0 24 24" fill="none" xmlns="http://www.w3.org/2000/svg">
<path d="M15.2645 4.10732C15.3466 3.98487 15.3886 3.84006 15.3847 3.69284C15.3807 3.54562 15.3311 3.40325 15.2425 3.28533C15.154 3.16742 15.0309 3.07978 14.8903 3.03449C14.7497 2.98921 14.5985 2.9885 14.4575 3.03246C12.9785 3.49409 11.7111 4.46244 10.8797 5.76604C10.0483 7.06963 9.71379 7.62496 9.5 9.32895C10.2142 9.56632 10.5706 9.64371 11.2848 10.1179C11.0643 9.18101 11.2498 8.53579 11.5615 7.62496C11.8732 6.71414 12.4357 5.90907 13.1847 5.30177C12.9373 6.25251 12.908 7.24659 13.099 8.21017C13.2899 9.17376 13.6962 10.0821 14.2877 10.8677C14.8792 11.6533 15.6406 12.2961 16.5155 12.7482C17.3904 13.2003 18.3562 13.4502 19.3413 13.4792C18.4052 14.1277 17.2784 14.4454 16.1402 14.3818C16.5155 14.8638 16.5155 15.2865 16.5155 15.8129C17.5468 15.7691 18.7407 15.4759 19.6402 14.9712C20.5398 14.4665 21.3071 13.7573 21.8796 12.9012C21.9617 12.7788 22.0037 12.634 21.9997 12.4867C21.9958 12.3395 21.9461 12.1971 21.8576 12.0792C21.7691 11.9613 21.646 11.8737 21.5054 11.8284C21.3648 11.7831 21.2136 11.7824 21.0725 11.8264C20.0594 12.1433 18.9725 12.1392 17.9617 11.8147C16.951 11.4902 16.0661 10.8611 15.4291 10.0143C14.7921 9.16753 14.4343 8.14464 14.4051 7.08668C14.3759 6.02871 14.6752 4.98776 15.2645 4.10732Z" fill="#202020"/>
<path fill-rule="evenodd" clip-rule="evenodd" d="M7.63808 11.6639C7.08846 11.6639 6.56136 11.882 6.17273 12.2702C5.7841 12.6584 5.56576 13.1849 5.56576 13.734C5.56576 14.283 5.7841 14.8095 6.17273 15.1977C6.56136 15.586 7.08846 15.8041 7.63808 15.8041C8.18769 15.8041 8.71479 15.586 9.10342 15.1977C9.49206 14.8095 9.71039 14.283 9.71039 13.734C9.71039 13.1849 9.49206 12.6584 9.10342 12.2702C8.71479 11.882 8.18769 11.6639 7.63808 11.6639ZM4.01153 13.734C4.01145 13.1335 4.1608 12.5424 4.44612 12.0139C4.73145 11.4854 5.14381 11.0361 5.64612 10.7063C6.14843 10.3765 6.72493 10.1765 7.32377 10.1245C7.92261 10.0725 8.52501 10.1699 9.07679 10.4081C9.62856 10.6463 10.1124 11.0178 10.4848 11.4892C10.8572 11.9605 11.1065 12.5169 11.2102 13.1084C11.3139 13.6998 11.2689 14.3078 11.0791 14.8775C10.8892 15.4472 10.5606 15.9609 10.1228 16.3723C10.9484 16.7724 11.6653 17.3656 12.2126 18.1015C12.7599 18.8373 13.1214 19.6942 13.2665 20.5994C13.2825 20.7001 13.2784 20.803 13.2546 20.9022C13.2308 21.0013 13.1877 21.0948 13.1277 21.1774C13.0677 21.2599 12.992 21.3298 12.905 21.3831C12.818 21.4364 12.7213 21.472 12.6204 21.488C12.5196 21.504 12.4166 21.4999 12.3173 21.4762C12.2181 21.4524 12.1245 21.4093 12.0419 21.3494C11.9593 21.2894 11.8893 21.2138 11.8359 21.1269C11.7826 21.04 11.7469 20.9434 11.7309 20.8426C11.5741 19.8711 11.0761 18.9871 10.3261 18.349C9.57614 17.711 8.6232 17.3605 7.63808 17.3605C6.65295 17.3605 5.70001 17.711 4.95003 18.349C4.20005 18.9871 3.70205 19.8711 3.54526 20.8426C3.5292 20.9434 3.49344 21.0399 3.44002 21.1269C3.3866 21.2138 3.31657 21.2893 3.23392 21.3492C3.15127 21.4091 3.05763 21.4521 2.95833 21.4758C2.85903 21.4996 2.75603 21.5035 2.6552 21.4875C2.55437 21.4714 2.45769 21.4357 2.37069 21.3824C2.28368 21.329 2.20804 21.259 2.1481 21.1765C2.08816 21.0939 2.04508 21.0004 2.02133 20.9012C1.99758 20.802 1.99362 20.6991 2.00967 20.5984C2.15508 19.6936 2.51674 18.8371 3.064 18.1016C3.61125 17.3661 4.32796 16.7733 5.15337 16.3733C4.7923 16.0349 4.50465 15.626 4.30824 15.172C4.11182 14.718 4.01083 14.2286 4.01153 13.734ZM12.5079 12.1813C12.3018 12.1813 12.1042 12.2631 11.9584 12.4087C11.8127 12.5543 11.7308 12.7517 11.7308 12.9576C11.7308 13.1635 11.8127 13.3609 11.9584 13.5065C12.1042 13.6521 12.3018 13.7339 12.5079 13.7339C12.8585 13.7339 13.1988 13.8523 13.4735 14.0699C13.7482 14.2875 13.9412 14.5915 14.0211 14.9325C14.1011 15.2734 14.0633 15.6314 13.9138 15.9482C13.7644 16.265 13.5121 16.522 13.198 16.6776C13.0685 16.7419 12.9595 16.8411 12.8833 16.964C12.8072 17.0869 12.7669 17.2286 12.767 17.3731V17.7374C12.7668 17.9118 12.8253 18.0812 12.9332 18.2182C13.0411 18.3553 13.192 18.4521 13.3617 18.493C14.6051 18.7921 15.6019 19.7351 15.9749 20.9481C16.0045 21.046 16.0531 21.1371 16.1181 21.2161C16.183 21.2951 16.2629 21.3606 16.3532 21.4087C16.4435 21.4568 16.5424 21.4866 16.6443 21.4964C16.7462 21.5062 16.849 21.4958 16.9468 21.4659C17.0446 21.4359 17.1356 21.3869 17.2144 21.3217C17.2933 21.2565 17.3584 21.1764 17.4062 21.086C17.4539 20.9955 17.4833 20.8966 17.4927 20.7948C17.5021 20.693 17.4912 20.5903 17.4608 20.4927C17.2534 19.8205 16.9113 19.1975 16.4553 18.6616C15.9993 18.1256 15.4389 17.6879 14.8082 17.3752C15.2133 16.93 15.4802 16.377 15.5765 15.7831C15.6729 15.1893 15.5944 14.5803 15.3508 14.0302C15.1072 13.48 14.7088 13.0124 14.2041 12.6842C13.6994 12.356 13.1102 12.1813 12.5079 12.1813Z" fill="#202020"/>
</svg>
