<svg width="20" height="14" viewBox="0 0 20 14" fill="none" xmlns="http://www.w3.org/2000/svg">
<path fill-rule="evenodd" clip-rule="evenodd" d="M6.9073 1.90901C6.23397 1.90901 5.58821 2.17711 5.11208 2.65432C4.63596 3.13153 4.36848 3.77876 4.36848 4.45364C4.36848 5.12851 4.63596 5.77575 5.11208 6.25296C5.58821 6.73016 6.23397 6.99826 6.9073 6.99826C7.58064 6.99826 8.2264 6.73016 8.70253 6.25296C9.17865 5.77575 9.44613 5.12851 9.44613 4.45364C9.44613 3.77876 9.17865 3.13153 8.70253 2.65432C8.2264 2.17711 7.58064 1.90901 6.9073 1.90901ZM2.46436 4.45364C2.46427 3.71553 2.64723 2.98898 2.99679 2.33933C3.34635 1.68968 3.85154 1.13731 4.46692 0.731891C5.08231 0.326473 5.78859 0.0807273 6.52224 0.0167571C7.25589 -0.047213 7.9939 0.0725985 8.66989 0.365416C9.34589 0.658233 9.93866 1.11487 10.3949 1.69426C10.8511 2.27365 11.1565 2.95762 11.2836 3.68465C11.4107 4.41168 11.3555 5.15897 11.1229 5.8593C10.8904 6.55964 10.4878 7.19105 9.95136 7.69676C10.9629 8.18862 11.8412 8.91776 12.5116 9.82232C13.1821 10.7269 13.625 11.7802 13.8028 12.8929C13.8223 13.0167 13.8174 13.1431 13.7882 13.265C13.7591 13.3869 13.7062 13.5019 13.6327 13.6033C13.5592 13.7047 13.4665 13.7907 13.3599 13.8562C13.2533 13.9217 13.1348 13.9655 13.0113 13.9852C12.8878 14.0048 12.7616 13.9998 12.64 13.9706C12.5183 13.9414 12.4037 13.8884 12.3025 13.8147C12.2013 13.7411 12.1155 13.6481 12.0502 13.5413C11.9848 13.4344 11.9411 13.3157 11.9215 13.1919C11.7294 11.9976 11.1193 10.911 10.2005 10.1266C9.28166 9.34231 8.1142 8.91155 6.9073 8.91155C5.70041 8.91155 4.53295 9.34231 3.61414 10.1266C2.69532 10.911 2.08521 11.9976 1.89312 13.1919C1.87345 13.3157 1.82964 13.4344 1.7642 13.5412C1.69875 13.6481 1.61295 13.7409 1.5117 13.8145C1.41044 13.8881 1.29571 13.941 1.17406 13.9702C1.05241 13.9994 0.926222 14.0042 0.802696 13.9845C0.67917 13.9648 0.560728 13.9209 0.454133 13.8553C0.347538 13.7897 0.254876 13.7037 0.18144 13.6022C0.108003 13.5007 0.055229 13.3857 0.0261312 13.2638C-0.00296674 13.1419 -0.00781879 13.0154 0.011852 12.8916C0.189995 11.7794 0.633071 10.7266 1.30352 9.82249C1.97397 8.91839 2.85203 8.18965 3.86325 7.69803C3.4209 7.28203 3.06849 6.77943 2.82786 6.22134C2.58723 5.66326 2.46351 5.0616 2.46436 4.45364ZM13.8891 2.54517C13.6366 2.54517 13.3944 2.64571 13.2159 2.82466C13.0373 3.00361 12.937 3.24633 12.937 3.4994C12.937 3.75248 13.0373 3.99519 13.2159 4.17415C13.3944 4.3531 13.6366 4.45364 13.8891 4.45364C14.3186 4.45366 14.7355 4.59923 15.072 4.86669C15.4086 5.13416 15.645 5.50781 15.7429 5.92695C15.8409 6.3461 15.7945 6.78613 15.6115 7.17555C15.4284 7.56498 15.1193 7.88093 14.7345 8.07209C14.5758 8.1512 14.4423 8.27316 14.349 8.42421C14.2557 8.57526 14.2063 8.74942 14.2064 8.92708V9.37493C14.2062 9.58927 14.2779 9.79746 14.4101 9.96595C14.5423 10.1344 14.7272 10.2534 14.9351 10.3037C16.4584 10.6714 17.6795 11.8305 18.1365 13.3216C18.1728 13.4419 18.2324 13.5539 18.3119 13.651C18.3914 13.7482 18.4893 13.8286 18.6 13.8878C18.7106 13.9469 18.8318 13.9835 18.9566 13.9956C19.0814 14.0077 19.2073 13.9949 19.3272 13.958C19.4471 13.9212 19.5585 13.8609 19.6551 13.7808C19.7517 13.7007 19.8315 13.6022 19.89 13.491C19.9485 13.3799 19.9845 13.2583 19.996 13.1331C20.0075 13.008 19.9942 12.8818 19.9569 12.7618C19.7028 11.9356 19.2837 11.1697 18.7251 10.5109C18.1664 9.8521 17.4798 9.3141 16.7072 8.92962C17.2035 8.38246 17.5305 7.70258 17.6485 6.97263C17.7665 6.24268 17.6704 5.49409 17.3719 4.81784C17.0734 4.14159 16.5854 3.56681 15.9671 3.16335C15.3488 2.75989 14.6269 2.54513 13.8891 2.54517Z" fill="white"/>
</svg>
