<svg width="12" height="12" viewBox="0 0 12 12" fill="none" xmlns="http://www.w3.org/2000/svg">
<path fill-rule="evenodd" clip-rule="evenodd" d="M6.00004 1.63666C5.41515 1.63666 4.85421 1.8665 4.44062 2.27563C4.02704 2.68475 3.79469 3.23965 3.79469 3.81824C3.79469 4.39683 4.02704 4.95173 4.44062 5.36085C4.85421 5.76998 5.41515 5.99982 6.00004 5.99982C6.58494 5.99982 7.14588 5.76998 7.55947 5.36085C7.97305 4.95173 8.2054 4.39683 8.2054 3.81824C8.2054 3.23965 7.97305 2.68475 7.55947 2.27563C7.14588 1.8665 6.58494 1.63666 6.00004 1.63666ZM2.14067 3.81824C2.14059 3.18544 2.29952 2.56255 2.60317 2.00558C2.90681 1.44862 3.34565 0.97505 3.8802 0.627473C4.41476 0.279895 5.02827 0.06921 5.66556 0.0143664C6.30284 -0.0404772 6.94392 0.062241 7.53112 0.313282C8.11832 0.564323 8.63323 0.955814 9.02954 1.45254C9.42585 1.94927 9.69113 2.53566 9.80152 3.15896C9.91191 3.78227 9.86394 4.42294 9.66194 5.02336C9.45993 5.62378 9.11022 6.16511 8.64427 6.59867C9.52294 7.02035 10.2858 7.64547 10.8682 8.42098C11.4507 9.19649 11.8354 10.0995 11.9898 11.0535C12.0068 11.1596 12.0025 11.268 11.9772 11.3725C11.9518 11.477 11.9059 11.5756 11.8421 11.6625C11.7782 11.7495 11.6977 11.8232 11.6051 11.8793C11.5125 11.9355 11.4096 11.9731 11.3023 11.9899C11.195 12.0067 11.0854 12.0025 10.9797 11.9774C10.8741 11.9524 10.7745 11.9069 10.6866 11.8438C10.5987 11.7806 10.5242 11.701 10.4674 11.6094C10.4106 11.5177 10.3726 11.4159 10.3556 11.3098C10.1888 10.2859 9.65879 9.35432 8.86066 8.68189C8.06253 8.00945 7.04842 7.64014 6.00004 7.64014C4.95167 7.64014 3.93756 8.00945 3.13943 8.68189C2.3413 9.35432 1.81132 10.2859 1.64446 11.3098C1.62738 11.4159 1.58932 11.5177 1.53247 11.6093C1.47563 11.7009 1.4011 11.7805 1.31314 11.8436C1.22518 11.9067 1.12553 11.9521 1.01985 11.9771C0.914181 12.0021 0.804565 12.0063 0.697264 11.9894C0.589963 11.9725 0.487078 11.9348 0.394484 11.8786C0.301889 11.8223 0.221399 11.7486 0.157608 11.6616C0.093817 11.5746 0.0479748 11.476 0.0226989 11.3715C-0.00257706 11.2669 -0.00679181 11.1585 0.0102953 11.0524C0.165039 10.0988 0.549919 9.19623 1.13231 8.42112C1.71469 7.64601 2.47742 7.02124 3.35582 6.59976C2.97157 6.24311 2.66545 5.81221 2.45643 5.33375C2.2474 4.85529 2.13993 4.33947 2.14067 3.81824Z" fill="#E7946D"/>
</svg>
