<svg width="20" height="11" viewBox="0 0 20 11" fill="none" xmlns="http://www.w3.org/2000/svg">
<path fill-rule="evenodd" clip-rule="evenodd" d="M5.42717 1.49994C4.89812 1.49994 4.39073 1.71058 4.01664 2.08553C3.64254 2.46048 3.43238 2.96903 3.43238 3.49929C3.43238 4.02954 3.64254 4.53809 4.01664 4.91304C4.39073 5.28799 4.89812 5.49863 5.42717 5.49863C5.95622 5.49863 6.4636 5.28799 6.8377 4.91304C7.21179 4.53809 7.42196 4.02954 7.42196 3.49929C7.42196 2.96903 7.21179 2.46048 6.8377 2.08553C6.4636 1.71058 5.95622 1.49994 5.42717 1.49994ZM1.93628 3.49929C1.93621 2.91935 2.07997 2.34849 2.35462 1.83805C2.62927 1.32761 3.02621 0.8936 3.50973 0.575057C3.99324 0.256514 4.54818 0.0634286 5.12462 0.0131663C5.70106 -0.0370959 6.28092 0.0570417 6.81206 0.287112C7.34319 0.517183 7.80894 0.875971 8.16741 1.33121C8.52588 1.78644 8.76584 2.32384 8.86568 2.89508C8.96553 3.46632 8.92215 4.05347 8.73943 4.60374C8.55671 5.154 8.24039 5.65011 7.81892 6.04745C8.61371 6.43391 9.30376 7.00681 9.83056 7.71754C10.3574 8.42827 10.7054 9.25586 10.845 10.1301C10.8604 10.2274 10.8565 10.3268 10.8336 10.4225C10.8107 10.5183 10.7692 10.6086 10.7114 10.6883C10.6537 10.768 10.5808 10.8355 10.4971 10.887C10.4133 10.9385 10.3202 10.9729 10.2231 10.9883C10.1261 11.0038 10.027 10.9999 9.9314 10.9769C9.83584 10.9539 9.74573 10.9123 9.66622 10.8544C9.58671 10.7965 9.51935 10.7235 9.46799 10.6396C9.41663 10.5556 9.38227 10.4623 9.36688 10.365C9.21596 9.42671 8.73658 8.57292 8.01466 7.95665C7.29273 7.34039 6.37544 7.00193 5.42717 7.00193C4.47889 7.00193 3.5616 7.34039 2.83968 7.95665C2.11775 8.57292 1.63838 9.42671 1.48745 10.365C1.472 10.4623 1.43758 10.5556 1.38616 10.6395C1.33473 10.7235 1.26732 10.7964 1.18776 10.8543C1.10821 10.9121 1.01806 10.9537 0.922479 10.9766C0.826896 10.9995 0.727746 11.0033 0.63069 10.9878C0.533634 10.9723 0.440572 10.9378 0.356819 10.8863C0.273065 10.8348 0.20026 10.7672 0.14256 10.6875C0.0848594 10.6077 0.0433942 10.5174 0.0205316 10.4216C-0.00233101 10.3258 -0.00614334 10.2264 0.00931229 10.1291C0.149282 9.25522 0.497413 8.42803 1.02419 7.71767C1.55098 7.00731 2.24088 6.43472 3.03541 6.04845C2.68785 5.7216 2.41096 5.32669 2.22189 4.8882C2.03282 4.44971 1.93561 3.97697 1.93628 3.49929ZM10.9128 1.99978C10.7145 1.99978 10.5242 2.07877 10.3839 2.21937C10.2436 2.35998 10.1648 2.55068 10.1648 2.74953C10.1648 2.94838 10.2436 3.13908 10.3839 3.27969C10.5242 3.42029 10.7145 3.49929 10.9128 3.49929C11.2503 3.4993 11.5779 3.61368 11.8423 3.82383C12.1067 4.03398 12.2925 4.32756 12.3695 4.65689C12.4464 4.98622 12.41 5.33196 12.2662 5.63793C12.1223 5.94391 11.8795 6.19216 11.5771 6.34235C11.4524 6.40452 11.3475 6.50034 11.2742 6.61902C11.2009 6.73771 11.1621 6.87455 11.1622 7.01413V7.36602C11.162 7.53443 11.2183 7.698 11.3222 7.83039C11.4261 7.96278 11.5714 8.05626 11.7347 8.09578C12.9316 8.38468 13.8911 9.29539 14.2501 10.467C14.2786 10.5615 14.3254 10.6495 14.3879 10.7258C14.4504 10.8021 14.5273 10.8654 14.6143 10.9118C14.7012 10.9583 14.7964 10.9871 14.8945 10.9965C14.9925 11.006 15.0915 10.996 15.1857 10.967C15.2798 10.9381 15.3674 10.8907 15.4433 10.8278C15.5192 10.7648 15.5819 10.6874 15.6278 10.6001C15.6738 10.5128 15.7021 10.4172 15.7111 10.3189C15.7202 10.2206 15.7097 10.1214 15.6804 10.0271C15.4808 9.37793 15.1515 8.77621 14.7125 8.25857C14.2736 7.74094 13.7342 7.31822 13.1271 7.01613C13.517 6.58622 13.7739 6.05203 13.8667 5.47849C13.9594 4.90496 13.8839 4.31678 13.6494 3.78545C13.4148 3.25411 13.0314 2.80249 12.5456 2.48549C12.0598 2.16849 11.4925 1.99975 10.9128 1.99978Z" fill="#E7946D"/>
<path d="M14.7114 2.62406C14.8432 2.49187 15.0221 2.4176 15.2086 2.4176C15.7536 2.41757 16.2869 2.57621 16.7436 2.87424C17.2004 3.17227 17.5609 3.59686 17.7814 4.09639C18.0019 4.59593 18.0729 5.1489 17.9857 5.68811C17.8985 6.22732 17.6569 6.72953 17.2903 7.13372C17.8611 7.41772 18.3682 7.81514 18.7809 8.30179C19.1936 8.78845 19.5032 9.35416 19.6908 9.96451C19.7184 10.0531 19.7282 10.1463 19.7198 10.2388C19.7113 10.3312 19.6847 10.4211 19.6414 10.5032C19.5982 10.5853 19.5393 10.658 19.4679 10.7172C19.3966 10.7764 19.3143 10.8209 19.2257 10.8481C19.1372 10.8754 19.0441 10.8848 18.952 10.8759C18.8598 10.867 18.7702 10.8399 18.6885 10.7962C18.6068 10.7526 18.5345 10.6931 18.4757 10.6214C18.417 10.5496 18.373 10.4669 18.3462 10.378C18.0086 9.27655 17.1066 8.42036 15.9813 8.14874C15.8278 8.11159 15.6911 8.0237 15.5935 7.89924C15.4959 7.77478 15.4429 7.62099 15.4431 7.46266V7.13184C15.443 7.00061 15.4795 6.87196 15.5484 6.76037C15.6173 6.64879 15.7159 6.55871 15.8332 6.50027C16.1174 6.35906 16.3457 6.12567 16.481 5.83801C16.6162 5.55034 16.6504 5.2253 16.5781 4.91568C16.5057 4.60606 16.3311 4.33005 16.0825 4.13248C15.8339 3.93491 15.5259 3.82738 15.2086 3.82736C15.0221 3.82736 14.8432 3.7531 14.7114 3.62091C14.5795 3.48872 14.5054 3.30943 14.5054 3.12248C14.5054 2.93554 14.5795 2.75625 14.7114 2.62406Z" fill="#E7946D"/>
</svg>
