<svg width="60" height="60" viewBox="0 0 60 60" fill="none" xmlns="http://www.w3.org/2000/svg">
<g filter="url(#filter0_d)">
<path d="M21.001 27.0005C21.001 25.4092 21.6331 23.8831 22.7583 22.7578C23.8836 21.6326 25.4097 21.0005 27.001 21.0005C28.5923 21.0005 30.1184 21.6326 31.2436 22.7578C32.3688 23.8831 33.001 25.4092 33.001 27.0005C33.001 28.5918 32.3688 30.1179 31.2436 31.2431C30.1184 32.3683 28.5923 33.0005 27.001 33.0005C25.4097 33.0005 23.8836 32.3683 22.7583 31.2431C21.6331 30.1179 21.001 28.5918 21.001 27.0005ZM27.001 24.0005C26.2053 24.0005 25.4423 24.3166 24.8797 24.8792C24.317 25.4418 24.001 26.2048 24.001 27.0005C24.001 27.7961 24.317 28.5592 24.8797 29.1218C25.4423 29.6844 26.2053 30.0005 27.001 30.0005C27.7966 30.0005 28.5597 29.6844 29.1223 29.1218C29.6849 28.5592 30.001 27.7961 30.001 27.0005C30.001 26.2048 29.6849 25.4418 29.1223 24.8792C28.5597 24.3166 27.7966 24.0005 27.001 24.0005Z" fill="#202020"/>
<path d="M10.501 12C9.3075 12 8.16291 12.4741 7.319 13.318C6.47508 14.1619 6.00098 15.3065 6.00098 16.5V37.5C6.00098 38.6935 6.47508 39.8381 7.319 40.682C8.16291 41.5259 9.3075 42 10.501 42H43.501C44.6945 42 45.839 41.5259 46.683 40.682C47.5269 39.8381 48.001 38.6935 48.001 37.5V16.5C48.001 15.3065 47.5269 14.1619 46.683 13.318C45.839 12.4741 44.6945 12 43.501 12H10.501ZM9.00098 16.5C9.00098 16.1022 9.15901 15.7206 9.44032 15.4393C9.72162 15.158 10.1032 15 10.501 15H15.001V18C15.001 18.7956 14.6849 19.5587 14.1223 20.1213C13.5597 20.6839 12.7966 21 12.001 21H9.00098V16.5ZM9.00098 24H12.001C13.5923 24 15.1184 23.3679 16.2436 22.2426C17.3688 21.1174 18.001 19.5913 18.001 18V15H36.001V18C36.001 19.5913 36.6331 21.1174 37.7583 22.2426C38.8836 23.3679 40.4097 24 42.001 24H45.001V30H42.001C40.4097 30 38.8836 30.6321 37.7583 31.7574C36.6331 32.8826 36.001 34.4087 36.001 36V39H18.001V36C18.001 34.4087 17.3688 32.8826 16.2436 31.7574C15.1184 30.6321 13.5923 30 12.001 30H9.00098V24ZM39.001 15H43.501C43.8988 15 44.2803 15.158 44.5616 15.4393C44.8429 15.7206 45.001 16.1022 45.001 16.5V21H42.001C41.2053 21 40.4423 20.6839 39.8797 20.1213C39.317 19.5587 39.001 18.7956 39.001 18V15ZM45.001 33V37.5C45.001 37.8978 44.8429 38.2794 44.5616 38.5607C44.2803 38.842 43.8988 39 43.501 39H39.001V36C39.001 35.2043 39.317 34.4413 39.8797 33.8787C40.4423 33.3161 41.2053 33 42.001 33H45.001ZM15.001 39H10.501C10.1032 39 9.72162 38.842 9.44032 38.5607C9.15901 38.2794 9.00098 37.8978 9.00098 37.5V33H12.001C12.7966 33 13.5597 33.3161 14.1223 33.8787C14.6849 34.4413 15.001 35.2043 15.001 36V39Z" fill="#202020"/>
<path d="M51.0004 37.4999C51.0004 39.489 50.2102 41.3967 48.8037 42.8032C47.3972 44.2097 45.4895 44.9999 43.5004 44.9999H12.2554C12.5657 45.8776 13.1406 46.6375 13.9009 47.1748C14.6612 47.7121 15.5694 48.0004 16.5004 47.9999H43.5004C46.2851 47.9999 48.9559 46.8936 50.925 44.9245C52.8941 42.9554 54.0004 40.2847 54.0004 37.4999V22.4999C54.0009 21.5689 53.7126 20.6607 53.1753 19.9004C52.638 19.1401 51.8781 18.5652 51.0004 18.2549V37.4999Z" fill="#202020"/>
</g>
<defs>
<filter id="filter0_d" x="-4" y="0" width="68" height="68" filterUnits="userSpaceOnUse" color-interpolation-filters="sRGB">
<feFlood flood-opacity="0" result="BackgroundImageFix"/>
<feColorMatrix in="SourceAlpha" type="matrix" values="0 0 0 0 0 0 0 0 0 0 0 0 0 0 0 0 0 0 127 0"/>
<feOffset dy="4"/>
<feGaussianBlur stdDeviation="2"/>
<feColorMatrix type="matrix" values="0 0 0 0 0 0 0 0 0 0 0 0 0 0 0 0 0 0 0.25 0"/>
<feBlend mode="normal" in2="BackgroundImageFix" result="effect1_dropShadow"/>
<feBlend mode="normal" in="SourceGraphic" in2="effect1_dropShadow" result="shape"/>
</filter>
</defs>
</svg>
