<svg width="395" height="269" viewBox="0 0 395 269" fill="none" xmlns="http://www.w3.org/2000/svg">
<path d="M322.083 198.94L392.284 184.787C392.831 184.676 393.182 184.139 393.063 183.593L389.014 165.064M322.083 198.94L317.246 177.696M322.083 198.94L282.685 207.552M386.39 95.0153L375.287 97.6588C374.757 97.7851 374.426 98.3127 374.542 98.8452L389.014 165.064M386.39 95.0153L336.394 36.5925C335.898 36.0133 334.962 36.1795 334.697 36.894L331.23 46.211M386.39 95.0153L389.465 89.8903C389.686 89.5219 389.647 89.0535 389.368 88.7267L332.992 22.6701M307.729 109.37L303.71 101.331M307.729 109.37L301.987 110.676M307.729 109.37L331.23 46.211M113.086 145.542L115.646 152.198C115.824 152.662 116.316 152.925 116.801 152.814L128.588 150.132M113.086 145.542L303.71 101.331M113.086 145.542L141.609 68.5305C141.724 68.2174 141.989 67.9828 142.314 67.9052L305.159 28.9859M303.71 101.331L332.992 22.6701M332.992 22.6701L328.399 23.2442M315.767 8.31586L302.86 12.0806C302.365 12.2249 302.061 12.7215 302.157 13.2277L305.159 28.9859M315.767 8.31586H324.38M315.767 8.31586L321.509 33.0051M324.38 8.31586L328.399 23.2442M324.38 8.31586V8.31586C325.01 7.68589 324.579 6.59335 323.688 6.59335H319.212M328.399 23.2442L322.306 32.6611C322.163 32.8815 321.939 33.037 321.683 33.094L307.587 36.2265C307.036 36.3489 306.493 35.9917 306.388 35.4374L305.159 28.9859M301.413 12.335V12.335C300.861 12.1511 300.861 11.3706 301.413 11.1867L315.193 6.59335M315.193 6.59335L314.045 2M315.193 6.59335H319.212M305.432 9.46419L304.517 5.80194C304.387 5.28164 304.69 4.75136 305.205 4.60004L314.045 2M314.045 2H317.283C317.742 2 318.142 2.3123 318.253 2.75746L319.212 6.59335M128.588 150.132L136.052 181.141M128.588 150.132L168.78 140.987M136.052 181.141H178.541M136.052 181.141H-108M183.708 181.141L183.911 182.289M183.708 181.141H178.541M183.708 181.141L183.265 179.418M301.987 110.676L317.246 177.696M301.987 110.676L297.394 111.721M188.369 207.552L188.73 209.597C188.814 210.075 189.23 210.423 189.715 210.423H192.199C192.617 210.423 192.992 210.684 193.137 211.076L198.335 225.111C198.508 225.578 198.999 225.847 199.486 225.74L282.685 207.552M188.369 207.552L317.246 177.696M188.369 207.552L187.457 202.385M317.246 177.696L389.014 165.064M187.457 202.385L309.651 172.758C310.179 172.63 310.508 172.105 310.393 171.574L297.394 111.721M187.457 202.385L183.911 182.289M297.394 111.721L260.647 120.083M304.858 110.676L317.861 169.317C317.975 169.832 318.469 170.169 318.99 170.089L384.208 160.055C384.771 159.969 385.148 159.43 385.037 158.871L372.659 96.9824C372.627 96.8218 372.556 96.6716 372.452 96.5449L331.23 46.211M314.045 129.178L314.302 130.309L315.58 136.912M314.045 129.178L320.447 129.361M314.045 129.178L312.413 120.548M326.109 129.384L326.203 129.967L327.426 137.574M326.109 129.384L320.447 129.361M326.109 129.384L324.793 121.193M320.447 129.361L317.167 111.359M320.447 129.361L323.415 146.032M312.413 120.548L310.968 113.084L310.872 112.586C310.75 111.958 311.242 111.379 311.882 111.397L322.558 111.698C323.043 111.711 323.449 112.071 323.519 112.551L324.793 121.193M312.413 120.548L324.793 121.193M315.58 136.912L316.858 143.515L317.118 144.861C317.201 145.29 317.553 145.615 317.988 145.665L327.616 146.756C328.274 146.831 328.821 146.257 328.716 145.604L327.426 137.574M315.58 136.912L327.426 137.574M356.313 102.48L356.16 101.734C356.049 101.194 356.396 100.666 356.935 100.554L368.742 98.0939C369.29 97.9798 369.824 98.3373 369.928 98.887L377.589 139.377C377.693 139.926 377.327 140.453 376.778 140.549L365.527 142.505C364.995 142.598 364.485 142.251 364.376 141.721L363.746 138.652M356.313 102.48H367.75C368.236 102.48 368.652 102.829 368.735 103.308L369.092 105.35L370.295 112.24M356.313 102.48L356.903 105.35L358.372 112.24M363.746 138.652H373.717C374.338 138.652 374.809 138.092 374.702 137.48L374.506 136.355L373.403 130.04M363.746 138.652L363.274 136.355L361.976 130.04M361.976 130.04H373.403M361.976 130.04L360.088 120.853M373.403 130.04L371.999 122.001L371.699 120.279M360.088 120.853L358.372 112.24M360.088 120.853L365.893 120.566M371.699 120.279L370.295 112.24M371.699 120.279L365.893 120.566M358.372 112.24H370.295M362.452 102.48L365.893 120.566M365.893 120.566L369.326 138.652M192.895 135.499L201.879 176.202C201.993 176.718 201.685 177.234 201.176 177.379L183.911 182.289M192.895 135.499L168.78 140.987M192.895 135.499L236.532 125.57M178.541 181.141L168.78 140.987M183.265 179.418L198.24 175.644C198.776 175.509 199.101 174.964 198.964 174.428L198.482 172.528L196.732 165.638M183.265 179.418L182.56 176.682L180.768 169.725M178.541 161.079L178.976 162.767L180.768 169.725M178.541 161.079L176.46 153M178.541 161.079L186.543 159.052M194.545 157.026L194.982 158.748L196.732 165.638M194.545 157.026L192.5 148.981M194.545 157.026L186.543 159.052M176.46 153L192.5 148.981M176.46 153L174.835 146.691L174.644 145.958C174.503 145.419 174.829 144.87 175.368 144.735L189.498 141.202C190.033 141.069 190.574 141.393 190.71 141.926L190.905 142.695L192.5 148.981M180.768 169.725L196.732 165.638M182.426 142.97L186.543 159.052M186.543 159.052L191.238 177.409M236.532 125.57L245.719 167.361M236.532 125.57L260.647 120.083M245.719 167.361L268.876 161.847C269.408 161.72 269.739 161.191 269.621 160.658L260.647 120.083M245.719 167.361L249.164 163.916M249.164 163.916L247.115 155.309M249.164 163.916L258.35 161.906M244.937 146.164L253.757 143.992M263.203 141.695L263.518 143.016L265.385 150.86M263.203 141.695L261.133 133M263.203 141.695L253.757 143.992M242.828 137.306L241.371 131.188L240.787 128.734C240.657 128.19 241 127.645 241.546 127.525L257.965 123.934C258.498 123.817 259.026 124.149 259.152 124.679L259.745 127.169L261.133 133M242.828 137.306L245.268 147.552L247.115 155.309M242.828 137.306L261.133 133M247.115 155.309L265.385 150.86M265.385 150.86L267.301 158.906C267.431 159.45 267.089 159.995 266.542 160.114L258.35 161.906M254.393 145.284L258.35 161.906M253.757 143.992L249.738 125.733M282.685 207.552V267.5M310.568 106.971L321.211 106.004C321.71 105.958 322.166 106.29 322.277 106.779L331.611 147.961C331.738 148.519 331.371 149.069 330.808 149.167L319.592 151.118C319.06 151.211 318.551 150.865 318.441 150.336L309.68 108.171C309.558 107.586 309.973 107.025 310.568 106.971Z" stroke="#FDF4F0" stroke-width="3" stroke-linecap="round" stroke-linejoin="round"/>
</svg>
