<svg width="1051" height="518" viewBox="0 0 1051 518" fill="none" xmlns="http://www.w3.org/2000/svg">
<path d="M208 515L217.926 429.639C218.036 428.696 217.665 427.76 216.939 427.148L12.8879 255.061C12.2501 254.523 11.8821 253.731 11.8821 252.897V234.241C11.8821 232.677 13.1495 231.41 14.7129 231.41H19.6057M59.7683 227.932L39.9268 231.368C39.7672 231.396 39.6056 231.41 39.4436 231.41H19.6057M59.7683 227.932V212.598C59.7683 211.034 61.0357 209.767 62.599 209.767H93.6984C93.9899 209.767 94.2796 209.722 94.5573 209.634L111.13 204.356M59.7683 227.932L90.6626 256.119M111.13 204.356V188.636C111.13 187.073 112.397 185.805 113.961 185.805H137.668C137.995 185.805 138.32 185.748 138.628 185.637L171.374 173.824M111.13 204.356V211.608C111.13 212.405 111.466 213.165 112.055 213.701L143.392 242.231M171.374 173.824L174.794 156.024C175.051 154.691 176.217 153.727 177.574 153.727H210.243C210.833 153.727 211.409 153.543 211.889 153.2L220.937 146.732C221.59 146.265 222.411 146.097 223.196 146.271L230.073 147.796M171.374 173.824L175.068 194.525C175.177 195.136 175.484 195.695 175.941 196.114L199.257 217.497M425.093 153.727L481.219 178.776C481.88 179.071 482.628 179.102 483.311 178.862L525.313 164.113C525.933 163.895 526.61 163.9 527.227 164.126L528.589 164.627M425.093 153.727V100.007M425.093 153.727L355.581 171.725M707.004 179.235L638.084 154.085C637.453 153.854 636.759 153.856 636.129 154.09L634.016 154.874M707.004 179.235L822.085 148.966M707.004 179.235V132.085M879.626 168.027V156.558C879.626 154.995 878.359 153.727 876.795 153.727H854.844C854.632 153.727 854.42 153.704 854.213 153.656L828.17 147.699C827.725 147.597 827.261 147.604 826.819 147.721L822.085 148.966M879.626 168.027L918.108 184.042C918.453 184.186 918.822 184.259 919.196 184.259H941.673C943.237 184.259 944.504 185.527 944.504 187.09V197.786M879.626 168.027V186.898C879.626 187.68 879.302 188.428 878.732 188.963L848.303 217.497M944.504 197.786L976.872 209.219C977.175 209.326 977.493 209.381 977.814 209.381H996.125C997.688 209.381 998.955 210.648 998.955 212.211V220.975M944.504 197.786L941.605 211.566C941.481 212.155 941.173 212.689 940.725 213.091L908.228 242.231M998.955 220.975L1029.08 231.796M998.955 220.975L997.234 227.865C997.097 228.412 996.8 228.906 996.381 229.284L968.656 254.212M1029.08 231.796H1045.17C1046.73 231.796 1048 233.064 1048 234.627V250.95C1048 251.792 1047.62 252.591 1046.98 253.129L844.411 421.044C843.727 421.612 843.349 422.467 843.39 423.354L847.573 513.927M1029.08 231.796V191.989M251.699 515V429.551C251.699 428.656 252.123 427.814 252.841 427.28L263.416 419.418C264.471 418.634 265.925 418.678 266.93 419.525L271.546 423.416C272.185 423.953 272.553 424.745 272.553 425.58V515M265.215 415.375L233.022 386.002M90.6626 256.119H71.9494C69.3829 256.119 68.141 259.26 70.0138 261.015L124.216 311.806C124.741 312.297 125.433 312.571 126.152 312.571H152.537M90.6626 256.119L152.537 312.571M152.537 312.571L178.377 336.146M178.377 336.146H168.846C166.235 336.146 165.016 339.381 166.978 341.104L217.3 385.298C217.817 385.752 218.481 386.002 219.168 386.002H233.022M178.377 336.146L233.022 386.002M318.5 513L323.845 425.402C323.89 424.672 324.215 423.987 324.753 423.492L333.569 415.375M333.569 415.375L342.5 513M333.569 415.375L294.565 379.864M204.52 297.885L158.646 256.119L143.392 242.231M204.52 297.885H179.484C178.772 297.885 178.087 297.617 177.564 297.134L133.142 256.119L121.852 247.292C119.731 245.635 120.903 242.231 123.595 242.231H143.392M204.52 297.885L233.387 324.165M294.565 379.864L273.614 380.556C272.93 380.579 272.261 380.353 271.73 379.92L218.102 336.146L210.136 329.119C208.18 327.393 209.4 324.165 212.008 324.165H233.387M294.565 379.864L246.546 336.146L233.387 324.165M376.435 513V395.47C376.435 394.844 376.642 394.236 377.025 393.74L383 386.002M383 386.002L411.734 411.397C412.368 411.958 412.718 412.773 412.688 413.619L409.26 510.062M383 386.002L369.936 374.021M265 277.788H234.468C233.772 277.788 233.1 277.531 232.581 277.067L171.829 222.738C169.904 221.017 171.1 217.828 173.682 217.798L199.257 217.497M265 277.788L199.257 217.497M265 277.788L291.971 302.522M291.971 302.522L268.944 304.013C266.427 304.176 265.364 307.3 267.258 308.965L340.491 373.317C341.008 373.771 341.672 374.021 342.36 374.021H369.936M291.971 302.522L369.936 374.021M8.02033 185.805L19.6057 191.989M19.6057 191.989V231.41M19.6057 191.989L230.073 91.504M230.073 91.504L315.915 114.509C318.33 115.156 318.781 118.387 316.636 119.672L285.971 138.033C283.506 139.509 284.553 143.292 287.425 143.292H303.146C303.346 143.292 303.546 143.271 303.741 143.229L355.581 132.085M230.073 91.504V147.796M3 182.713L228.973 70.0232C229.675 69.6733 230.49 69.63 231.225 69.9038L260.195 80.6981M355.581 116.239L423.944 82.0306C424.675 81.6652 425.527 81.6329 426.283 81.9422L485.491 106.166C486.138 106.43 486.86 106.446 487.518 106.211L526.272 92.3337M355.581 116.239L284.911 89.907M355.581 116.239V53.2425M1029.08 191.989L1042.25 186.608C1044.5 185.69 1044.62 182.554 1042.46 181.461L828.579 73.5016C827.885 73.1514 827.077 73.1018 826.346 73.3646L805.933 80.6981M1029.08 191.989L822.085 91.504M822.085 91.504L737.121 119.493C734.573 120.333 734.513 123.914 737.03 124.839L773.355 138.187C775.574 139.003 775.875 142.018 773.861 143.256L758.078 152.955C757.29 153.439 756.316 153.508 755.468 153.14L707.004 132.085M822.085 91.504V148.966M707.004 132.085L645.551 143.162C645.078 143.248 644.59 143.211 644.135 143.056L636.359 140.403C633.738 139.508 633.828 135.77 636.49 135.003L674.23 124.134C676.748 123.409 677.015 119.948 674.638 118.846L634.016 100.007M634.016 100.007L597.558 113.449C595.048 114.375 595.103 117.944 597.641 118.791L611.848 123.53C614.551 124.431 614.378 128.311 611.606 128.969L599.314 131.888C598.775 132.016 598.21 131.983 597.69 131.793L528.589 106.577M634.016 100.007V154.874M528.589 106.577L460.638 131.792C460.124 131.983 459.565 132.02 459.029 131.899L445.586 128.861C442.808 128.233 442.592 124.358 445.284 123.425L458.824 118.735C461.304 117.875 461.381 114.396 458.941 113.428L425.093 100.007M528.589 106.577V164.627M425.093 100.007L389.923 113.953C387.668 114.847 387.509 117.979 389.662 119.097L419.272 134.472C421.475 135.616 421.244 138.839 418.901 139.657L409.234 143.032C408.746 143.202 408.22 143.236 407.714 143.129L355.581 132.085M355.581 132.085V171.725M459.85 510.062V418.205C459.85 416.642 461.117 415.375 462.68 415.375H588.107C589.601 415.375 590.838 416.536 590.932 418.027L597 513.927M646.5 513.927L640.658 413.606C640.61 412.768 640.935 411.951 641.548 411.376L652.534 401.075M675.337 513.927V433.302C675.337 432.703 675.147 432.119 674.795 431.635L652.534 401.075M652.534 401.075L681.384 374.021M741 513.927L736.384 416.023C736.364 415.596 736.248 415.18 736.044 414.804L729.402 402.587M681.384 374.021H717.488C718.197 374.021 718.879 373.756 719.401 373.277L791.232 307.44C793.136 305.696 791.901 302.522 789.32 302.522H757.631M681.384 374.021L757.631 302.522M757.631 302.522L784.008 277.788M784.008 277.788L811.854 277.414C812.478 277.406 813.083 277.191 813.573 276.803L882.127 222.547C884.231 220.882 883.053 217.497 880.37 217.497H848.303M784.008 277.788L848.303 217.497M718.589 513.927V413.547C718.589 412.742 718.932 411.976 719.53 411.439L729.402 402.587M729.402 402.587L816.857 324.165M764.931 374.021L792.416 375.136C793.119 375.165 793.807 374.931 794.347 374.48L848.541 329.168C850.571 327.471 849.371 324.165 846.726 324.165H816.857M816.857 324.165L846.164 297.885M846.164 297.885H874.762C875.41 297.885 876.039 297.662 876.543 297.254L938.29 247.262C940.363 245.584 939.177 242.231 936.509 242.231H908.228M846.164 297.885L908.228 242.231M822.085 386.002H838.86C839.501 386.002 840.123 385.785 840.624 385.385L896.08 341.191C898.175 339.521 896.995 336.146 894.316 336.146H877.533M822.085 386.002L785.015 417.232C784.377 417.77 784.008 418.562 784.008 419.397V513.927M822.085 386.002L877.533 336.146M877.533 336.146L903.752 312.571M903.752 312.571H928.798C929.464 312.571 930.109 312.336 930.619 311.908L991.644 260.639C993.595 259 992.555 255.818 990.012 255.647L968.656 254.212M903.752 312.571L968.656 254.212M230.073 147.796L346.808 173.677C347.244 173.774 347.697 173.766 348.13 173.654L355.581 171.725M260.195 80.6981L354.377 33.3641C355.139 32.9813 356.033 32.9621 356.81 33.3119L376.049 41.9686M260.195 80.6981L284.911 89.907M455.215 77.5907L376.049 41.9686M455.215 77.5907L516.618 48.5354M455.215 77.5907V20.3916M598.488 77.5907L536.084 48.5354M598.488 77.5907L664.348 49.3777M598.488 77.5907V20.3916M805.933 80.6981L704.29 33.2941C703.56 32.9536 702.719 32.9403 701.979 33.2575L676.979 43.9669M805.933 80.6981L780.3 89.907M284.911 89.907L355.581 53.2425M355.581 53.2425L454.286 86.1696C454.888 86.3706 455.54 86.3632 456.138 86.1487L526.272 60.9721M526.272 60.9721L597.593 86.1637C598.174 86.3688 598.805 86.3789 599.392 86.1925L703.142 53.2425M526.272 60.9721V92.3337M703.142 53.2425L780.3 89.907M703.142 53.2425V114.398M780.3 89.907L708.114 115.84C707.404 116.095 706.621 116.056 705.939 115.731L703.142 114.398M526.272 92.3337L527.607 91.8557C528.241 91.6287 528.935 91.6351 529.565 91.8736L567.358 106.195C568.007 106.441 568.724 106.44 569.373 106.192L632.883 81.8894C633.606 81.6124 634.412 81.6443 635.112 81.9778L703.142 114.398M634.016 154.874L569.346 178.872C568.713 179.106 568.018 179.107 567.385 178.875L528.589 164.627M376.049 41.9686L454.025 3.58621C454.779 3.2148 455.66 3.19812 456.428 3.54067L525.129 34.1813C525.857 34.5062 526.689 34.5087 527.419 34.1881L597.244 3.5457C598.03 3.20072 598.931 3.23111 599.692 3.62833L676.979 43.9669M676.979 43.9669L664.348 49.3777M396.13 49.3777L455.215 20.3916M455.215 20.3916L516.618 48.5354M516.618 48.5354L525.071 44.5353C525.832 44.1752 526.714 44.1725 527.477 44.5278L536.084 48.5354M536.084 48.5354L598.488 20.3916M598.488 20.3916L664.348 49.3777M526.272 266.193V235.275M526.272 266.193L466.028 279.529M526.272 266.193L577.634 277.942M729.402 270.675L601.611 385.279C601.092 385.745 600.419 386.002 599.721 386.002H450.527C449.817 386.002 449.133 385.735 448.61 385.255L360.796 304.455L324.083 270.675M729.402 270.675L808.955 199.332L831.337 181.413C832.739 180.29 832.754 178.162 831.368 177.019L828.594 174.733C827.901 174.161 826.978 173.953 826.106 174.171L707.735 203.787C707.256 203.907 706.754 203.899 706.279 203.765L637.88 184.478C637.374 184.335 636.838 184.336 636.332 184.481L569.143 203.747C568.635 203.893 568.096 203.893 567.588 203.748L527.03 192.205C526.534 192.064 526.009 192.061 525.512 192.196L483.09 203.741C482.541 203.89 481.961 203.871 481.423 203.686L425.893 184.535C425.371 184.355 424.808 184.332 424.274 184.468L348.162 203.795C347.709 203.91 347.234 203.911 346.78 203.797L227.25 173.987C226.821 173.88 226.373 173.875 225.941 173.973L220.788 175.137C218.403 175.676 217.777 178.781 219.766 180.202L246.546 199.332L324.083 270.675M729.402 270.675L711.467 260.2C710.834 259.83 710.082 259.72 709.369 259.894L658.925 272.184M324.083 270.675L346.385 256.795C347.076 256.365 347.918 256.253 348.697 256.488L384.159 267.173M658.925 272.184V255.957C658.925 254.887 658.322 253.909 657.366 253.428L621.272 235.275M658.925 272.184L621.272 281.357M621.272 235.275L577.634 256.119M621.272 235.275V281.357M577.634 256.119L526.272 235.275M577.634 256.119V277.942M526.272 235.275L466.028 256.119M466.028 256.119L425.093 235.275M466.028 256.119V279.529M425.093 235.275L385.801 253.453C384.799 253.916 384.159 254.919 384.159 256.022V267.173M425.093 235.275V279.508M384.159 267.173L425.093 279.508M425.093 279.508L441.764 284.531C442.228 284.671 442.72 284.689 443.193 284.585L466.028 279.529M577.634 277.942L606.718 284.595C607.147 284.693 607.592 284.69 608.019 284.586L621.272 281.357" stroke="#FDF4F0" stroke-width="5" stroke-linecap="round"/>
</svg>
