<svg width="100" height="100" viewBox="0 0 100 100" fill="none" xmlns="http://www.w3.org/2000/svg">
<rect width="100" height="100" fill="white"/>
<path d="M39.15 60.4833C39.15 62.3339 40.6498 63.8333 42.5 63.8333C44.3502 63.8333 45.85 62.3339 45.85 60.4833V50.4333H54.7833C56.6335 50.4333 58.1333 48.9339 58.1333 47.0833C58.1333 45.2328 56.6335 43.7333 54.7833 43.7333H45.85V35.9167C45.85 34.0661 44.3502 32.5667 42.5 32.5667C40.6498 32.5667 39.15 34.0661 39.15 35.9167V43.7333H30.2167C28.3665 43.7333 26.8667 45.2328 26.8667 47.0833C26.8667 48.9339 28.3665 50.4333 30.2167 50.4333H39.15V60.4833Z" fill="#E7946D"/>
<path d="M12.3494 44.8503H15.6994V68.3001C15.6994 71.9951 18.7044 75 22.3996 75H62.6004C66.2956 75 69.3006 71.9951 69.3006 68.3001V44.8503H72.6506C73.3131 44.8502 73.9607 44.6536 74.5115 44.2855C75.0623 43.9174 75.4915 43.3943 75.745 42.7822C75.9985 42.1702 76.0649 41.4967 75.9357 40.847C75.8065 40.1973 75.4875 39.6004 75.0191 39.1319L44.8685 8.98221C44.5577 8.67085 44.1885 8.42383 43.7821 8.25529C43.3756 8.08675 42.94 8 42.5 8C42.06 8 41.6244 8.08675 41.218 8.25529C40.8115 8.42383 40.4423 8.67085 40.1315 8.98221L9.98086 39.1319C9.51249 39.6004 9.19354 40.1973 9.06433 40.847C8.93513 41.4967 9.00147 42.1702 9.25497 42.7822C9.50847 43.3943 9.93775 43.9174 10.4885 44.2855C11.0393 44.6536 11.6869 44.8502 12.3494 44.8503ZM42.5 16.0875L62.6004 36.1873L62.6038 68.3001H55.9003C47.5258 68.2995 52.4338 68.2994 48.7387 68.2994L35.7999 68.3001H22.3996V36.1873L42.5 16.0875Z" fill="#E7946D"/>
<rect x="53.084" y="55.0833" width="35.5" height="35.5" rx="17.75" fill="white"/>
<path fill-rule="evenodd" clip-rule="evenodd" d="M70.834 61.3333C72.4908 61.3333 73.834 62.4525 73.834 63.8333V73.8333C73.834 75.214 72.4908 76.3333 70.834 76.3333C69.1771 76.3333 67.834 75.214 67.834 73.8333V63.8333C67.834 62.4525 69.1771 61.3333 70.834 61.3333Z" fill="#E7946D"/>
<path fill-rule="evenodd" clip-rule="evenodd" d="M67.834 81.3333C67.834 79.6764 69.1699 78.3333 70.8178 78.3333H70.8502C72.4981 78.3333 73.834 79.6764 73.834 81.3333C73.834 82.9901 72.4981 84.3333 70.8502 84.3333H70.8178C69.1699 84.3333 67.834 82.9901 67.834 81.3333Z" fill="#E7946D"/>
<rect x="53.084" y="55.0833" width="35.5" height="35.5" rx="17.75" stroke="#E7946D" stroke-width="4.5"/>
</svg>
