<svg width="212" height="195" viewBox="0 0 212 195" fill="none" xmlns="http://www.w3.org/2000/svg">
<rect x="2" y="21" width="208" height="172" fill="white"/>
<path fill-rule="evenodd" clip-rule="evenodd" d="M2.74691 17C1.22983 17 0 18.2298 0 19.7469C0 20.6004 0.389289 21.3631 1 21.8669V190.133C0.389288 190.637 0 191.4 0 192.253C0 193.77 1.22984 195 2.74692 195H209.253C210.77 195 212 193.77 212 192.253C212 191.4 211.611 190.637 211 190.133V21.8669C211.611 21.3631 212 20.6004 212 19.7469C212 18.2298 210.77 17 209.253 17H2.74691ZM209 189.506V22.4938H3V189.506H209Z" fill="#F8E6D8"/>
<path d="M80.0422 19.25L106 2.95193L131.958 19.25H80.0422Z" stroke="#F8E6D8" stroke-width="5"/>
</svg>
