<svg width="100" height="100" viewBox="0 0 100 100" fill="none" xmlns="http://www.w3.org/2000/svg">
<path d="M19.8449 25.6348C18.8566 22.3214 20.9416 18.8781 24.3358 18.2183C27.7053 17.5633 30.9123 19.9358 31.2718 23.3495L34.0249 49.4899C34.2104 51.2508 33.0189 52.8613 31.2808 53.1991C29.5566 53.5343 27.8595 52.5066 27.3574 50.8234L19.8449 25.6348Z" fill="#E7946D"/>
<path d="M37.5047 59.9821C38.0308 62.6889 36.2631 65.3097 33.5562 65.8359C30.8494 66.3621 28.2286 64.5943 27.7024 61.8875C27.1763 59.1806 28.9441 56.5598 31.6509 56.0336C34.3577 55.5075 36.9785 57.2753 37.5047 59.9821Z" fill="#E7946D"/>
<path d="M67.3591 78.5341C66.4701 81.3722 63.3272 82.8247 60.5895 81.6626C57.8719 80.5091 56.7262 77.2748 58.1117 74.6677L68.7213 54.7036C69.436 53.3588 71.0602 52.7834 72.4621 53.3785C73.8527 53.9688 74.5686 55.5179 74.1171 56.9596L67.3591 78.5341Z" fill="#E7946D"/>
<path d="M71.2864 45.5482C72.2132 43.365 74.7343 42.3464 76.9175 43.2731C79.1007 44.1999 80.1193 46.721 79.1926 48.9042C78.2659 51.0874 75.7448 52.106 73.5615 51.1793C71.3783 50.2526 70.3597 47.7314 71.2864 45.5482Z" fill="#E7946D"/>
</svg>
