<svg width="24" height="24" viewBox="0 0 24 24" fill="none" xmlns="http://www.w3.org/2000/svg">
<path d="M20.9976 7.975V6C20.9976 3.794 19.2042 2 16.9989 2H7.00231C4.79706 2 3.00366 3.794 3.00366 6V7.998L2.92769 8.002C2.67557 8.02021 2.43971 8.13328 2.26759 8.31845C2.09546 8.50362 1.99985 8.74714 2 9V11C2 11.2652 2.10532 11.5196 2.29279 11.7071C2.48027 11.8946 2.73454 12 2.99966 12H3.00366V18C3.00366 18.735 3.40653 19.372 3.99932 19.72V21C3.99932 21.2652 4.10465 21.5196 4.29212 21.7071C4.47959 21.8946 4.73386 22 4.99899 22H5.99865C6.26378 22 6.51804 21.8946 6.70552 21.7071C6.89299 21.5196 6.99831 21.2652 6.99831 21V20H16.9949V21C16.9949 21.2652 17.1003 21.5196 17.2877 21.7071C17.4752 21.8946 17.7295 22 17.9946 22H18.9943C19.2594 22 19.5137 21.8946 19.7011 21.7071C19.8886 21.5196 19.9939 21.2652 19.9939 21V19.724C20.2978 19.5501 20.5506 19.2992 20.7268 18.9966C20.903 18.6939 20.9964 18.3502 20.9976 18V12C21.2627 12 21.517 11.8946 21.7044 11.7071C21.8919 11.5196 21.9972 11.2652 21.9972 11V9.062C22.0088 8.90681 21.9841 8.75106 21.9253 8.607C21.7223 8.12 21.2905 8.003 20.9976 7.975ZM19.0003 18H5.00299V13H18.9993L19.0003 18ZM11.001 7V11H5.00299V7H11.001ZM18.9983 7V11H13.0003V7H18.9983ZM7.00231 4H16.9989C17.7347 4 18.3735 4.405 18.7204 5H5.28089C5.62777 4.405 6.26656 4 7.00231 4Z" fill="#202020"/>
<path d="M7.49853 17.0002C8.32667 17.0002 8.99802 16.3287 8.99802 15.5002C8.99802 14.6718 8.32667 14.0002 7.49853 14.0002C6.67038 14.0002 5.99903 14.6718 5.99903 15.5002C5.99903 16.3287 6.67038 17.0002 7.49853 17.0002Z" fill="#202020"/>
<path d="M16.4955 17.0002C17.3236 17.0002 17.9949 16.3287 17.9949 15.5002C17.9949 14.6718 17.3236 14.0002 16.4955 14.0002C15.6673 14.0002 14.996 14.6718 14.996 15.5002C14.996 16.3287 15.6673 17.0002 16.4955 17.0002Z" fill="#202020"/>
</svg>
