<svg width="100" height="100" viewBox="0 0 100 100" fill="none" xmlns="http://www.w3.org/2000/svg">
<path d="M39.3069 30.1937C39.1119 30.3887 38.9639 30.6238 38.8403 30.8814L38.8264 30.8675L19.2996 74.8551L19.3187 74.8742C18.9566 75.5758 19.5625 77.0035 20.8038 78.2465C22.0451 79.4878 23.4727 80.0937 24.1743 79.7316L24.1917 79.749L68.1793 60.2204L68.1654 60.2047C68.4213 60.0829 68.6564 59.9349 68.8531 59.7364C71.5725 57.017 67.1626 48.1989 59.0061 40.0407C50.8461 31.8825 42.0281 27.4743 39.3069 30.1937Z" fill="#EDB096"/>
<path d="M41.699 38.0464L19.7905 73.7469L19.2996 74.8524L19.3187 74.8716C18.9566 75.5732 19.5625 77.0008 20.8038 78.2439C21.2077 78.6478 21.6273 78.9542 22.0381 79.2136L48.6629 46.7513L41.699 38.0464Z" fill="#E7946D"/>
<path d="M59.129 39.9045C67.2593 48.0384 71.7737 56.7085 69.2075 59.2712C66.643 61.8374 57.973 57.3248 49.8374 49.1944C41.7053 41.0605 37.1926 32.387 39.7571 29.8225C42.3233 27.2581 50.9934 31.7707 59.129 39.9045Z" fill="#A64919"/>
<path d="M51.4305 40.8492C51.084 41.1295 50.6314 41.2757 50.1526 41.2235C48.6415 41.0599 47.3705 40.5341 46.4809 39.7036C45.539 38.8244 45.0742 37.6441 45.2013 36.4619C45.4241 34.3867 47.5063 32.4821 51.0562 32.8651C52.4368 33.0131 53.0531 32.5691 53.074 32.3567C53.0984 32.146 52.5917 31.5802 51.2111 31.4305C49.7 31.2669 48.429 30.7411 47.5377 29.9106C46.5958 29.0314 46.1292 27.851 46.258 26.6689C46.4844 24.5937 48.5648 22.689 52.1112 23.0738C53.1175 23.1817 53.6485 22.9746 53.8731 22.8405C54.0524 22.7308 54.1238 22.6264 54.1308 22.5654C54.1516 22.3548 53.652 21.789 52.2679 21.6392C51.3121 21.5348 50.6192 20.6782 50.7254 19.7207C50.8281 18.7649 51.6829 18.0737 52.6422 18.1782C56.1886 18.5594 57.8181 20.8628 57.5936 22.9397C57.3672 25.0185 55.2868 26.9196 51.7369 26.5384C50.7306 26.4287 50.2048 26.6376 49.9785 26.7716C49.7992 26.8796 49.7261 26.9858 49.7191 27.045C49.6965 27.2574 50.1996 27.8215 51.5837 27.9712C55.1301 28.3542 56.7596 30.6558 56.535 32.7328C56.3105 34.808 54.23 36.7126 50.6819 36.3279C49.6756 36.2199 49.1463 36.4289 48.92 36.5612C48.7389 36.6726 48.6693 36.7771 48.6623 36.8362C48.6397 37.0469 49.1429 37.6127 50.5252 37.7624C51.4792 37.8669 52.1739 38.7252 52.0677 39.681C52.0189 40.158 51.777 40.5706 51.4305 40.8492Z" fill="#E16161"/>
<path d="M72.4455 56.9513C75.8804 55.9816 78.2499 57.5136 78.814 59.5245C79.3781 61.5335 78.1559 64.0771 74.7227 65.0434C73.3821 65.4194 72.98 66.0601 73.0339 66.2638C73.0931 66.4692 73.7739 66.807 75.1109 66.4292C78.5441 65.4629 80.9136 66.995 81.4777 69.0041C82.0453 71.0149 80.8196 73.555 77.3847 74.523C76.0458 74.899 75.6419 75.5415 75.7011 75.7452C75.7586 75.9489 76.4376 76.2866 77.7764 75.9106C78.6991 75.6512 79.6636 76.1891 79.923 77.1136C80.1807 78.0398 79.6427 79.0008 78.7165 79.2619C75.285 80.2282 72.9138 78.6996 72.3463 76.687C71.7822 74.6779 73.0061 72.1379 76.4428 71.1699C77.7833 70.7921 78.1855 70.1531 78.1263 69.9477C78.0706 69.744 77.3916 69.4045 76.0545 69.7806C72.6179 70.7486 70.2501 69.22 69.6843 67.2057C69.1185 65.1966 70.3424 62.6565 73.7773 61.6868C75.1144 61.3124 75.5166 60.6683 75.4609 60.4663C75.4017 60.2609 74.7244 59.9231 73.3856 60.2992C72.4594 60.5603 71.5001 60.0206 71.239 59.0962C70.9796 58.1735 71.5193 57.2124 72.4455 56.9513Z" fill="#94B36C"/>
<path d="M59.1106 52.2539C58.5988 52.2539 58.0939 52.0293 57.7492 51.601C57.1485 50.8489 57.2721 49.7538 58.0207 49.1532C58.4003 48.8485 67.4534 41.7384 80.2478 43.5681C81.2001 43.7039 81.8617 44.5849 81.7259 45.5372C81.5901 46.4878 80.7162 47.1563 79.7551 47.0135C68.451 45.4084 60.2788 51.8082 60.1987 51.8726C59.8749 52.1303 59.4919 52.2539 59.1106 52.2539Z" fill="#E16161"/>
<path d="M29.0824 45.0135C28.917 45.0135 28.7482 44.9892 28.581 44.9404C27.66 44.6636 27.1378 43.6939 27.4146 42.7729C29.3871 36.2042 31.1751 25.7217 28.978 22.9884C28.7325 22.6785 28.3617 22.3738 27.5121 22.4383C25.879 22.5636 26.034 26.009 26.0357 26.0438C26.1088 27.0031 25.3881 27.8388 24.4305 27.9102C23.4573 27.9694 22.6356 27.2625 22.5642 26.3032C22.3849 23.9024 23.1318 19.2784 27.2509 18.9667C29.0894 18.8275 30.6162 19.4664 31.6939 20.807C35.8218 25.9446 31.6312 40.8387 30.7503 43.774C30.524 44.5278 29.831 45.0135 29.0824 45.0135Z" fill="#94B36C"/>
<path d="M63.4601 36.3081C64.9024 36.3081 66.0716 35.1389 66.0716 33.6967C66.0716 32.2544 64.9024 31.0852 63.4601 31.0852C62.0178 31.0852 60.8486 32.2544 60.8486 33.6967C60.8486 35.1389 62.0178 36.3081 63.4601 36.3081Z" fill="#62853E"/>
<path d="M22.5474 51.975C24.4704 51.975 26.0293 50.4161 26.0293 48.4931C26.0293 46.57 24.4704 45.0111 22.5474 45.0111C20.6244 45.0111 19.0654 46.57 19.0654 48.4931C19.0654 50.4161 20.6244 51.975 22.5474 51.975Z" fill="#E16161"/>
<path d="M75.6476 53.7187C77.0899 53.7187 78.2591 52.5495 78.2591 51.1072C78.2591 49.6649 77.0899 48.4957 75.6476 48.4957C74.2053 48.4957 73.0361 49.6649 73.0361 51.1072C73.0361 52.5495 74.2053 53.7187 75.6476 53.7187Z" fill="#62853E"/>
<path d="M59.9796 74.6089C61.4219 74.6089 62.5911 73.4397 62.5911 71.9975C62.5911 70.5552 61.4219 69.386 59.9796 69.386C58.5374 69.386 57.3682 70.5552 57.3682 71.9975C57.3682 73.4397 58.5374 74.6089 59.9796 74.6089Z" fill="#62853E"/>
<path d="M67.813 27.6012C69.736 27.6012 71.295 26.0423 71.295 24.1193C71.295 22.1963 69.736 20.6373 67.813 20.6373C65.89 20.6373 64.3311 22.1963 64.3311 24.1193C64.3311 26.0423 65.89 27.6012 67.813 27.6012Z" fill="#F3D990"/>
<path d="M75.6476 34.5649C77.0899 34.5649 78.2591 33.3957 78.2591 31.9534C78.2591 30.5111 77.0899 29.3419 75.6476 29.3419C74.2053 29.3419 73.0361 30.5111 73.0361 31.9534C73.0361 33.3957 74.2053 34.5649 75.6476 34.5649Z" fill="#F3D990"/>
<path d="M70.424 41.5293C71.8662 41.5293 73.0354 40.3601 73.0354 38.9179C73.0354 37.4756 71.8662 36.3064 70.424 36.3064C68.9817 36.3064 67.8125 37.4756 67.8125 38.9179C67.8125 40.3601 68.9817 41.5293 70.424 41.5293Z" fill="#F3D990"/>
<path d="M32.1222 60.6797C33.5645 60.6797 34.7337 59.5105 34.7337 58.0683C34.7337 56.626 33.5645 55.4568 32.1222 55.4568C30.6799 55.4568 29.5107 56.626 29.5107 58.0683C29.5107 59.5105 30.6799 60.6797 32.1222 60.6797Z" fill="#F3D990"/>
</svg>
