<svg width="24" height="24" viewBox="0 0 24 24" fill="none" xmlns="http://www.w3.org/2000/svg">
<path d="M8.5 5.64482C8.91421 5.64482 9.25 5.30903 9.25 4.89482C9.25 4.4806 8.91421 4.14482 8.5 4.14482V5.64482ZM6 4.89482V4.14482V4.89482ZM18 4.89482V4.14482V4.89482ZM15.5 4.14482C15.0858 4.14482 14.75 4.4806 14.75 4.89482C14.75 5.30903 15.0858 5.64482 15.5 5.64482V4.14482ZM15.379 4.43526L16.1042 4.24397L16.1042 4.24393L15.379 4.43526ZM13.439 3L13.4391 2.25H13.439V3ZM10.562 3V2.25H10.5619L10.562 3ZM8.622 4.43526L9.34712 4.62685L9.34718 4.6266L8.622 4.43526ZM8 6.78947L7.27488 6.59789C7.21544 6.82288 7.2638 7.06271 7.40579 7.24708C7.54777 7.43146 7.7673 7.53947 8 7.53947V6.78947ZM16 6.78947V7.53947C16.2327 7.53947 16.4521 7.4315 16.5941 7.2472C16.7361 7.0629 16.7845 6.82314 16.7252 6.59818L16 6.78947ZM15 13.2236C15.4142 13.2236 15.75 12.8878 15.75 12.4736C15.75 12.0594 15.4142 11.7236 15 11.7236V13.2236ZM9 11.7236C8.58579 11.7236 8.25 12.0594 8.25 12.4736C8.25 12.8878 8.58579 13.2236 9 13.2236V11.7236ZM15 17.0132C15.4142 17.0132 15.75 16.6775 15.75 16.2632C15.75 15.849 15.4142 15.5132 15 15.5132V17.0132ZM9 15.5132C8.58579 15.5132 8.25 15.849 8.25 16.2632C8.25 16.6775 8.58579 17.0132 9 17.0132V15.5132ZM8.5 4.14482H6V5.64482H8.5V4.14482ZM6 4.14482C5.28335 4.14482 4.58843 4.41415 4.06998 4.90531L5.1016 5.99424C5.33329 5.77474 5.65579 5.64482 6 5.64482V4.14482ZM4.06998 4.90531C3.55015 5.39778 3.25 6.07464 3.25 6.78956H4.75C4.75 6.49944 4.87128 6.21243 5.1016 5.99424L4.06998 4.90531ZM3.25 6.78956V19.1053H4.75V6.78956H3.25ZM3.25 19.1053C3.25 19.8203 3.55015 20.4971 4.06998 20.9896L5.1016 19.9007C4.87128 19.6825 4.75 19.3955 4.75 19.1053H3.25ZM4.06998 20.9896C4.58843 21.4808 5.28334 21.7501 6 21.7501V20.2501C5.65579 20.2501 5.33329 20.1202 5.1016 19.9007L4.06998 20.9896ZM6 21.7501H18V20.2501H6V21.7501ZM18 21.7501C18.7167 21.7501 19.4116 21.4808 19.93 20.9896L18.8984 19.9007C18.6667 20.1202 18.3442 20.2501 18 20.2501V21.7501ZM19.93 20.9896C20.4499 20.4971 20.75 19.8203 20.75 19.1053H19.25C19.25 19.3955 19.1287 19.6825 18.8984 19.9007L19.93 20.9896ZM20.75 19.1053V6.78956H19.25V19.1053H20.75ZM20.75 6.78956C20.75 6.07464 20.4499 5.39778 19.93 4.90531L18.8984 5.99424C19.1287 6.21243 19.25 6.49944 19.25 6.78956H20.75ZM19.93 4.90531C19.4116 4.41415 18.7167 4.14482 18 4.14482V5.64482C18.3442 5.64482 18.6667 5.77474 18.8984 5.99424L19.93 4.90531ZM18 4.14482H15.5V5.64482H18V4.14482ZM16.1042 4.24393C15.9511 3.66355 15.5997 3.15654 15.1157 2.79847L14.2236 4.00434C14.4426 4.16638 14.5906 4.38717 14.6538 4.6266L16.1042 4.24393ZM15.1157 2.79847C14.6324 2.44089 14.0422 2.25009 13.4391 2.25L13.4389 3.75C13.7278 3.75004 14.0039 3.84181 14.2236 4.00434L15.1157 2.79847ZM13.439 2.25H10.562V3.75H13.439V2.25ZM10.5619 2.25C9.95879 2.25009 9.3686 2.44089 8.88527 2.79847L9.7774 4.00434C9.99708 3.84181 10.2732 3.75004 10.5621 3.75L10.5619 2.25ZM8.88527 2.79847C8.40128 3.15654 8.04995 3.66355 7.89682 4.24393L9.34718 4.6266C9.41036 4.38717 9.55837 4.16638 9.7774 4.00434L8.88527 2.79847ZM7.89688 4.24368L7.27488 6.59789L8.72512 6.98106L9.34712 4.62685L7.89688 4.24368ZM8 7.53947H16V6.03947H8V7.53947ZM16.7252 6.59818L16.1042 4.24397L14.6538 4.62656L15.2748 6.98077L16.7252 6.59818ZM15 11.7236H9V13.2236H15V11.7236ZM15 15.5132H9V17.0132H15V15.5132Z" fill="#3D3D3D"/>
</svg>
