<svg width="24" height="24" viewBox="0 0 24 24" fill="none" xmlns="http://www.w3.org/2000/svg">
<path d="M5.47005 3.49651C4.7844 4.03692 4.3119 4.9098 4.1187 5.82385C4.09531 5.8313 4.0725 5.84047 4.05045 5.8513L1.9032 6.84979C1.78318 6.90519 1.68144 6.99396 1.60999 7.10561C1.53854 7.21727 1.50038 7.34715 1.5 7.47991V20.5331C1.50077 20.6415 1.52652 20.7483 1.57523 20.8451C1.62395 20.9418 1.69429 21.0259 1.78076 21.0907C1.86723 21.1556 1.96746 21.1994 2.0736 21.2187C2.17974 21.2381 2.28889 21.2324 2.3925 21.2023L8.34495 19.5135L15.422 21.4746C15.5496 21.5098 15.6846 21.5084 15.8115 21.4704L22.0023 19.618C22.1454 19.5757 22.2711 19.4882 22.3608 19.3684C22.4504 19.2486 22.4993 19.103 22.5 18.953V5.66553C22.5 5.20112 22.0506 4.86758 21.6023 4.99846L15.6151 6.75163L12.5723 5.81541C12.5303 5.80274 12.4872 5.7943 12.4442 5.78902C12.3266 5.09662 11.9979 4.43167 11.4467 3.7836C10.7925 3.0131 9.64485 2.56135 8.5266 2.50752C7.36635 2.45158 6.48015 2.70067 5.4711 3.49545L5.47005 3.49651ZM21.1004 6.59752V18.4348L15.9869 19.9642V8.09315L21.1004 6.59752ZM12.4809 7.24559L14.5872 7.8926V19.7974L9.26895 18.3261V14.8483C9.26895 14.4641 8.955 14.1527 8.5686 14.1527C8.1822 14.1527 7.8693 14.4641 7.8693 14.8493V18.2026L2.89965 19.6117V7.92216L4.07565 7.37331C4.0956 7.48941 4.1208 7.6034 4.1523 7.71423C4.38063 8.52353 4.76367 9.28035 5.28 9.94236L7.88085 13.207C7.94933 13.2928 8.03679 13.3614 8.13627 13.4073C8.23576 13.4532 8.34452 13.4751 8.45391 13.4713C8.5633 13.4675 8.67031 13.4381 8.76641 13.3854C8.86251 13.3328 8.94507 13.2583 9.0075 13.1679L11.4383 9.62888C11.8394 9.06525 12.1208 8.56284 12.2793 8.1132C12.3788 7.83256 12.4465 7.54151 12.4809 7.24559ZM8.4594 3.89865C9.2217 3.93559 10.005 4.24379 10.3778 4.68182C10.8261 5.20956 11.0466 5.70353 11.0907 6.20383C11.1432 6.80651 11.1075 7.23187 10.9584 7.65301C10.8482 7.96438 10.6287 8.35913 10.2896 8.83515L8.388 11.6026L6.3825 9.0853C5.97791 8.56553 5.67797 7.97148 5.49945 7.33636C5.24745 6.44976 5.62755 5.14729 6.33945 4.58788C7.0692 4.01264 7.62045 3.85748 8.45835 3.89865H8.4594ZM8.3145 4.63432C7.1553 4.63432 6.2145 5.56843 6.2145 6.72102C6.21601 6.99666 6.27154 7.2693 6.37791 7.52337C6.48427 7.77743 6.6394 8.00794 6.83442 8.20173C7.02943 8.39551 7.26052 8.54877 7.51448 8.65274C7.76844 8.75672 8.04029 8.80938 8.3145 8.80771C9.4737 8.80771 10.4145 7.87361 10.4145 6.72102C10.4145 5.56843 9.4737 4.63432 8.3145 4.63432ZM8.3145 6.02545C8.40592 6.0249 8.49655 6.04245 8.58123 6.0771C8.6659 6.11175 8.74295 6.16284 8.80799 6.22743C8.87302 6.29201 8.92476 6.36885 8.96025 6.45354C8.99575 6.53823 9.0143 6.62912 9.01485 6.72102C9.01485 7.10521 8.7009 7.41658 8.3145 7.41658C8.22308 7.417 8.13247 7.39931 8.04785 7.36453C7.96323 7.32974 7.88626 7.27855 7.82132 7.21386C7.75639 7.14917 7.70476 7.07226 7.6694 6.98752C7.63403 6.90277 7.61561 6.81186 7.6152 6.71996C7.61659 6.53473 7.69098 6.35761 7.82206 6.22743C7.95315 6.09724 8.13023 6.02461 8.3145 6.02545Z" fill="#3D3D3D"/>
</svg>
