<svg width="24" height="24" viewBox="0 0 40 40" fill="none" xmlns="http://www.w3.org/2000/svg">
<path d="M35.4167 19.9999C35.4167 28.5143 28.5144 35.4166 20 35.4166C11.4857 35.4166 4.58337 28.5143 4.58337 19.9999C4.58337 11.4855 11.4857 4.58325 20 4.58325C28.5144 4.58325 35.4167 11.4855 35.4167 19.9999Z" stroke="#202020" stroke-width="2.5"/>
<path fill-rule="evenodd" clip-rule="evenodd" d="M29.9808 14.8839C29.9871 14.9574 29.9919 15.0313 29.995 15.1048C30.0193 15.667 29.9539 16.2295 29.8013 16.7711C29.7768 16.8564 29.7503 16.941 29.7222 17.0252C29.6647 17.1942 29.5987 17.3602 29.5246 17.5225C29.5068 17.5652 29.4882 17.6048 29.4673 17.6443C29.4556 17.6663 29.4446 17.6882 29.4335 17.7102C29.4247 17.7278 29.4159 17.7453 29.4068 17.7629C29.3754 17.8227 29.3431 17.8821 29.3099 17.9412C29.2083 18.1187 29.0967 18.2903 28.9755 18.4551L28.9359 18.51C28.8943 18.5661 28.8515 18.6206 28.8075 18.6733C28.7778 18.7089 28.7481 18.7444 28.7177 18.7796C28.6873 18.8148 28.6564 18.8496 28.6248 18.884C28.5932 18.9184 28.5612 18.9528 28.5287 18.9868C28.4636 19.0537 28.3963 19.1196 28.3267 19.1844C28.2311 19.2737 28.1334 19.3603 28.0334 19.4394C27.9666 19.4931 27.8994 19.5449 27.8306 19.5951C27.7618 19.6453 27.6926 19.6936 27.6223 19.7398C27.5166 19.8102 27.4092 19.8761 27.3001 19.9375C27.155 20.0189 27.0063 20.0928 26.8557 20.1596C26.7424 20.2097 26.628 20.2554 26.5126 20.2968C26.4758 20.3098 26.4363 20.3233 26.3967 20.3363C26.3198 20.3622 26.2418 20.3861 26.1627 20.4083C25.6944 20.54 25.2102 20.6065 24.7237 20.6059H24.5687L24.483 20.6028C24.4478 20.6012 24.4122 20.5992 24.377 20.5968H24.3478L24.2462 20.5889H24.2386C24.2054 20.5858 24.1726 20.5826 24.1394 20.5787L24.0999 20.5743C24.0675 20.5707 24.0394 20.5672 24.003 20.562L23.9961 20.5611C23.962 20.5563 23.9276 20.5514 23.8935 20.5458H23.8813C23.8461 20.5403 23.8105 20.5344 23.7753 20.5277L23.7567 20.5245L23.6524 20.5039L23.6203 20.4972L23.5294 20.4771H23.5271L23.4448 20.4573L23.3788 20.4403L23.3144 20.4229L23.2823 20.4142L23.1867 20.3861L23.172 20.3818L23.1682 20.3806C23.1329 20.37 23.0996 20.36 23.0629 20.347C23.025 20.3336 22.989 20.3209 22.9495 20.3075L22.8309 20.2644C22.8086 20.2545 22.7865 20.2455 22.7644 20.2366C22.7548 20.2327 22.7452 20.2288 22.7356 20.2249L22.6886 20.2055L22.6214 20.177L22.5586 20.1493C22.2928 20.4352 21.9178 20.7844 21.4319 21.2369C21.3574 21.3063 21.2797 21.3786 21.2 21.453C20.5455 22.0633 20.3705 22.2418 20.2015 22.4142C20.0176 22.6018 19.8406 22.7822 19.0605 23.5043C18.3683 24.1449 17.6679 24.7771 16.9676 25.4092C16.1415 26.1548 15.3154 26.9005 14.5031 27.6597L14.5005 27.6621C13.6222 28.4804 13.1832 28.8895 12.8404 28.8314C12.8035 28.8252 12.7968 28.8185 12.6583 28.6812C12.5681 28.5917 12.4219 28.4468 12.175 28.2104C12.1302 28.1673 12.0904 28.1293 12.0549 28.0954C11.8126 27.8638 11.7757 27.8284 11.7319 27.736C11.6345 27.5324 11.6563 27.3678 11.7308 26.8042L11.737 26.7572C11.7618 26.5688 11.7816 26.4154 11.7977 26.2901C11.8669 25.7538 11.8697 25.7321 11.9133 25.6725C12.0681 25.4589 12.2643 25.4139 12.4681 25.3671C12.6702 25.3207 12.8799 25.2725 13.0645 25.0566C13.2343 24.8579 13.2622 24.6552 13.287 24.4758C13.3122 24.293 13.3341 24.1344 13.4994 24.0288C13.6882 23.9081 13.8885 23.9542 14.0798 23.9983C14.2641 24.0408 14.44 24.0813 14.5889 23.9683C14.7677 23.8326 14.7668 23.5823 14.7658 23.3356C14.7649 23.0915 14.764 22.8509 14.9372 22.7283C15.0877 22.6221 15.2796 22.6678 15.4667 22.7123C15.6598 22.7583 15.8479 22.8032 15.9804 22.6785C16.0951 22.5705 16.1022 22.399 16.1157 22.0681C16.1243 21.8507 16.1028 21.7046 16.0869 21.5965C16.0678 21.4665 16.0567 21.3914 16.1157 21.3131C16.2418 21.1459 16.5379 21.1613 16.9063 21.1806C17.1749 21.1947 17.3314 21.226 17.4376 21.2473C17.5551 21.2708 17.6108 21.2819 17.6883 21.2435C17.8751 21.151 17.8718 20.9115 17.8674 20.5935C17.8629 20.269 17.8573 19.8628 18.0516 19.4476C18.1443 19.2497 18.2175 19.1883 18.6031 18.8653C18.7926 18.7065 19.0576 18.4845 19.4376 18.1518C19.6584 17.9586 19.8308 17.8042 19.9681 17.6806C19.8862 17.5205 19.8124 17.3561 19.7471 17.1879C19.4938 16.5356 19.3727 15.8395 19.3909 15.14C19.4091 14.4406 19.5662 13.7517 19.8531 13.1135C20.14 12.4753 20.551 11.9006 21.0621 11.4227C21.5732 10.9448 22.1743 10.5733 22.8303 10.3298C23.4863 10.0863 24.1842 9.97573 24.8834 10.0044C25.5825 10.0332 26.269 10.2006 26.9028 10.4971C27.5367 10.7936 28.1052 11.2131 28.5754 11.7313C28.5849 11.7412 28.594 11.7511 28.6027 11.7613C28.6572 11.8206 28.7099 11.8807 28.7608 11.9416L28.7638 11.9452C28.7812 11.966 28.7974 11.9852 28.8154 12.008C28.8238 12.0187 28.8325 12.0295 28.8413 12.0403C28.8523 12.0539 28.8633 12.0675 28.8739 12.0811C28.8905 12.1017 28.9067 12.1227 28.9225 12.144C28.9293 12.1524 28.9357 12.1607 28.9415 12.1689C28.9628 12.1962 28.9826 12.2235 29.0023 12.2511C29.0055 12.2551 29.0083 12.2594 29.011 12.2634C29.0324 12.2918 29.0522 12.3207 29.0719 12.35L29.0834 12.3666C29.0927 12.3812 29.1028 12.3961 29.113 12.411C29.1225 12.425 29.1321 12.4391 29.1411 12.4531C29.1459 12.4599 29.1498 12.4662 29.1538 12.4729C29.1715 12.4982 29.1885 12.5251 29.2052 12.552C29.2063 12.5538 29.2074 12.5556 29.2086 12.5574C29.2133 12.565 29.218 12.5724 29.2221 12.58C29.2364 12.6014 29.2494 12.6227 29.2617 12.6441C29.2712 12.6591 29.2803 12.6745 29.2886 12.6899C29.3044 12.7156 29.3194 12.7421 29.334 12.769C29.3368 12.7733 29.3393 12.7778 29.3415 12.7824C29.3558 12.8075 29.3698 12.834 29.3832 12.8593C29.3884 12.8691 29.3935 12.8787 29.3985 12.888C29.4163 12.9212 29.4333 12.9548 29.4499 12.9888L29.4558 13.0002C29.4736 13.0362 29.4926 13.0765 29.5076 13.1086C29.5226 13.1406 29.5372 13.1726 29.5511 13.205C29.5626 13.2308 29.5738 13.2574 29.5848 13.2835C29.5911 13.2986 29.5974 13.3135 29.6036 13.3279C29.6068 13.3355 29.61 13.3434 29.6127 13.3509C29.6278 13.3825 29.6404 13.4153 29.6523 13.4461C29.6573 13.4591 29.6615 13.4712 29.6659 13.4835C29.672 13.5005 29.6782 13.518 29.6867 13.539C29.7013 13.5754 29.7139 13.6118 29.7262 13.6481C29.7384 13.6845 29.7515 13.7244 29.7618 13.7576C29.772 13.7908 29.7819 13.824 29.7918 13.8572L29.7966 13.8731C29.8064 13.9083 29.8155 13.9411 29.8254 13.9782C29.8353 14.0154 29.8444 14.0521 29.8535 14.0893C29.8606 14.1182 29.8676 14.1497 29.8739 14.1779C29.8758 14.186 29.8775 14.1938 29.8792 14.2012C29.8867 14.2344 29.8934 14.268 29.9001 14.3016C29.9007 14.3042 29.9014 14.3067 29.902 14.3092C29.9037 14.3156 29.9053 14.3219 29.9053 14.3285C29.9109 14.3575 29.9153 14.382 29.921 14.4138L29.9231 14.4253C29.9298 14.4629 29.9361 14.5 29.9416 14.538C29.9472 14.5759 29.9527 14.6139 29.9575 14.651C29.9622 14.6882 29.9666 14.725 29.9705 14.7621V14.772C29.9741 14.8064 29.9776 14.8412 29.9808 14.876V14.8839ZM26.6402 16.9193C26.6831 16.9427 26.7957 17.0042 26.8929 16.9604C26.9885 16.9177 27.0293 16.7975 27.0463 16.7327C27.119 16.4884 27.1957 16.039 27.2376 15.5397C27.2518 15.3709 27.2621 15.1966 27.2673 15.0218C27.2831 14.5099 27.2554 14.0019 27.1514 13.6402C27.1347 13.5801 27.1122 13.5217 27.0842 13.4659C27.0519 13.4015 27.0099 13.3424 26.9597 13.2908C26.8711 13.2022 26.7627 13.1359 26.6434 13.0975C25.8077 12.8034 24.1248 12.837 23.5318 12.9741L23.5302 12.9745C23.4635 12.9904 23.3475 13.018 23.2946 13.1145C23.2421 13.2102 23.2995 13.3297 23.3194 13.3711L23.3203 13.373C23.3746 13.4726 23.4438 13.5632 23.5255 13.6418L22.379 14.9218C22.1292 15.1551 22.0908 15.5195 22.2932 15.7362L22.8692 16.352C22.8687 16.3492 22.8681 16.3463 22.8675 16.3436C22.8662 16.3375 22.8649 16.3315 22.8649 16.3256C22.8534 16.2508 22.8479 16.1821 22.8435 16.1279C22.832 15.9655 22.8453 15.8024 22.8831 15.644C22.9376 15.4088 23.0159 15.0716 23.3092 14.8783C23.3571 14.8463 23.6227 14.6716 23.9022 14.772C23.9489 14.789 24.1438 14.8665 24.209 15.0562C24.2126 15.0667 24.2156 15.0774 24.2181 15.0882C24.2556 15.2366 24.1961 15.3746 24.1564 15.4668C24.1551 15.4699 24.1538 15.473 24.1525 15.476C24.1252 15.5355 24.0923 15.5922 24.054 15.6452C24.005 15.7151 23.9566 15.7643 23.9245 15.7971C23.8975 15.8245 23.882 15.8403 23.8872 15.8468C23.8905 15.8509 23.908 15.8379 23.9382 15.8154C24.0141 15.759 24.1699 15.6431 24.3806 15.5891C24.434 15.5743 24.4884 15.5636 24.5434 15.5571C24.6233 15.5481 24.7043 15.5565 24.7806 15.5816C24.8599 15.6106 24.9326 15.6551 24.9946 15.7125C25.0565 15.7698 25.1065 15.8388 25.1416 15.9156C25.1683 15.974 25.183 16.0372 25.1851 16.1014C25.1922 16.4868 24.6506 16.7232 24.4869 16.7944C24.171 16.9323 23.7421 17.0019 23.4085 16.9272L24.0979 17.6645C24.1248 17.6932 24.1552 17.7184 24.1884 17.7396C24.2243 17.7623 24.263 17.7803 24.3035 17.7929C24.4988 17.8566 24.7375 17.802 24.9162 17.6348L26.288 16.5869C26.4193 16.7438 26.5383 16.8632 26.6367 16.9173L26.6402 16.9193ZM20.7416 20.5365L13.8969 26.9345C13.8092 27.0165 13.8046 27.1541 13.8866 27.2418C13.9686 27.3296 14.1062 27.3342 14.1939 27.2522L21.0385 20.8542C21.1263 20.7722 21.1309 20.6346 21.0489 20.5469C20.9669 20.4592 20.8293 20.4545 20.7416 20.5365Z" fill="#202020"/>
</svg>
