<svg width="30" height="30" viewBox="0 0 30 30" fill="none" xmlns="http://www.w3.org/2000/svg">
<path d="M8.86157 5.30674C8.86157 4.0265 7.83464 3 6.55387 3C5.27309 3 4.24616 4.0265 4.24616 5.30674C4.24616 6.58698 5.27309 7.61348 6.55387 7.61348C7.83464 7.61348 8.86157 6.58698 8.86157 5.30674ZM12.5424 5.88343C12.0693 5.88343 11.6654 6.17177 11.4808 6.61005C11.2257 7.24835 10.7846 7.79528 10.2146 8.17988C9.64469 8.56447 8.97229 8.76897 8.28464 8.76685H4.82309C3.86539 8.76685 3.09231 9.53961 3.09231 10.4969V12.2948C3.09231 12.8943 3.57852 13.3803 4.17829 13.3803H8.92944C9.52921 13.3803 10.0154 12.8943 10.0154 12.2948V11.5696C10.0154 11.0958 10.3278 10.6862 10.7557 10.4823C11.2814 10.2319 11.7672 9.90188 12.1953 9.5027C12.8182 8.92202 13.3034 8.20956 13.6154 7.41741C13.9154 6.67925 13.3385 5.88343 12.5424 5.88343ZM23.5499 20.7619C24.8306 20.7619 25.8576 19.7354 25.8576 18.4552C25.8576 17.1749 24.8306 16.1484 23.5499 16.1484C22.2691 16.1484 21.2421 17.1749 21.2421 18.4552C21.2421 19.7354 22.2691 20.7619 23.5499 20.7619ZM25.2806 21.9153H21.8191C20.3652 21.9153 19.1306 21.0272 18.6229 19.7585C18.54 19.5444 18.3942 19.3605 18.2048 19.2308C18.0153 19.1011 17.791 19.0317 17.5614 19.0319C16.7652 19.0319 16.1883 19.8277 16.4767 20.5658C16.7906 21.3569 17.2764 22.0684 17.899 22.6489C18.3274 23.0483 18.8132 23.3788 19.3389 23.6301C19.7656 23.8341 20.0768 24.2432 20.0768 24.716V25.4432C20.0768 26.0428 20.563 26.5288 21.1627 26.5288H25.9139C26.5137 26.5288 26.9999 26.0428 26.9999 25.4432V23.6453C27.0114 22.688 26.2383 21.9153 25.2806 21.9153Z" fill="#202020"/>
<path d="M13.7417 25.8485C13.6931 26.5627 13.0721 27.1096 12.3676 26.9812C9.99336 26.5487 7.80248 25.3799 6.11555 23.6244C4.42862 21.869 3.34836 19.6338 3.01139 17.2451C2.91141 16.5363 3.48309 15.9381 4.19892 15.9183C4.91474 15.8984 5.50157 16.4657 5.6246 17.1708C5.92877 18.9141 6.7459 20.5386 7.98573 21.8287C9.22557 23.1189 10.8165 24.0003 12.5469 24.3742C13.2468 24.5254 13.7903 25.1344 13.7417 25.8485Z" fill="#202020"/>
<path d="M15.9262 4.15149C15.9748 3.43734 16.5957 2.8904 17.3002 3.01876C19.6745 3.45134 21.8654 4.62012 23.5523 6.37555C25.2392 8.13098 26.3195 10.3662 26.6565 12.7549C26.7564 13.4637 26.1848 14.0619 25.4689 14.0817C24.7531 14.1016 24.1663 13.5343 24.0433 12.8292C23.7391 11.0859 22.922 9.46144 21.6821 8.17126C20.4423 6.88108 18.8513 5.99966 17.1209 5.62578C16.421 5.47455 15.8776 4.86565 15.9262 4.15149Z" fill="#202020"/>
</svg>
