<svg width="30" height="30" viewBox="0 0 30 30" fill="none" xmlns="http://www.w3.org/2000/svg">
<path d="M15.2787 14.5513L14.9999 14.8263L14.7199 14.5513C14.1996 14.0376 13.4979 13.7496 12.7668 13.7496C12.0357 13.7496 11.334 14.0376 10.8137 14.5513C10.5555 14.7997 10.35 15.0977 10.2097 15.4274C10.0694 15.7571 9.99707 16.1117 9.99707 16.4701C9.99707 16.8284 10.0694 17.183 10.2097 17.5127C10.35 17.8424 10.5555 18.1404 10.8137 18.3888L14.9999 22.5001L19.1862 18.3888C19.4444 18.1404 19.6498 17.8424 19.7901 17.5127C19.9305 17.183 20.0028 16.8284 20.0028 16.4701C20.0028 16.1117 19.9305 15.7571 19.7901 15.4274C19.6498 15.0977 19.4444 14.7997 19.1862 14.5513C18.6657 14.0376 17.9638 13.7495 17.2324 13.7495C16.5011 13.7495 15.7992 14.0376 15.2787 14.5513Z" fill="#202020"/>
<path d="M27.1336 14.1163L15.8836 2.86626C15.7676 2.75008 15.6299 2.6579 15.4782 2.59501C15.3266 2.53213 15.164 2.49976 14.9999 2.49976C14.8357 2.49976 14.6731 2.53213 14.5215 2.59501C14.3698 2.6579 14.2321 2.75008 14.1161 2.86626L2.86611 14.1163C2.69134 14.2911 2.57234 14.5138 2.52413 14.7562C2.47592 14.9987 2.50067 15.25 2.59526 15.4783C2.68985 15.7067 2.85002 15.9019 3.05553 16.0393C3.26104 16.1766 3.50267 16.25 3.74986 16.25H4.99986V25C4.99986 26.3788 6.12111 27.5 7.49986 27.5H22.4999C23.8786 27.5 24.9999 26.3788 24.9999 25V16.25H26.2499C26.497 16.25 26.7387 16.1766 26.9442 16.0393C27.1497 15.9019 27.3099 15.7067 27.4045 15.4783C27.499 15.25 27.5238 14.9987 27.4756 14.7562C27.4274 14.5138 27.3084 14.2911 27.1336 14.1163ZM22.5011 25H7.49986V13.0188L14.9999 5.51876L22.4999 13.0188V18.75L22.5011 25Z" fill="#202020"/>
</svg>
