<svg width="30" height="30" viewBox="0 0 30 30" fill="none" xmlns="http://www.w3.org/2000/svg">
<path d="M15 2.5C8.1075 2.5 2.5 8.1075 2.5 15C2.5 21.8925 8.1075 27.5 15 27.5C21.8925 27.5 27.5 21.8925 27.5 15C27.5 8.1075 21.8925 2.5 15 2.5ZM15 25C9.48625 25 5 20.5138 5 15C5 9.48625 9.48625 5 15 5C20.5138 5 25 9.48625 25 15C25 20.5138 20.5138 25 15 25Z" fill="#202020"/>
<path d="M10.5062 18.4813C10.2977 19.1068 10.8931 19.7019 11.5185 19.4931L17.1102 17.6264C17.3486 17.5468 17.5357 17.3598 17.6155 17.1216L19.4911 11.5198C19.7006 10.8942 19.1054 10.2982 18.4795 10.5068L12.8795 12.3735C12.6406 12.4531 12.4531 12.6406 12.3735 12.8795L10.5062 18.4813Z" fill="#202020"/>
</svg>
