<svg width="24" height="24" viewBox="0 0 24 24" fill="none" xmlns="http://www.w3.org/2000/svg">
<path fill-rule="evenodd" clip-rule="evenodd" d="M3.99983 13.0001H2.99981C2.80205 13 2.60875 12.9414 2.44434 12.8315C2.27992 12.7216 2.15178 12.5655 2.07611 12.3828C2.00044 12.2001 1.98064 11.999 2.0192 11.8051C2.05777 11.6111 2.15298 11.433 2.29279 11.2931L11.293 2.2932C11.3858 2.20025 11.496 2.12652 11.6173 2.07621C11.7386 2.0259 11.8687 2 12 2C12.1313 2 12.2614 2.0259 12.3827 2.07621C12.504 2.12652 12.6142 2.20025 12.707 2.2932L21.7072 11.2931C21.847 11.433 21.9422 11.6111 21.9808 11.8051C22.0194 11.999 21.9996 12.2001 21.9239 12.3828C21.8482 12.5655 21.7201 12.7216 21.5557 12.8315C21.3913 12.9414 21.1979 13 21.0002 13.0001H20.0002V20C20.0002 21.103 19.1032 22 18.0001 22H5.99987C4.89685 22 3.99983 21.103 3.99983 20V13.0001ZM18.0001 10.4141L12 4.41418L5.99987 10.4141V20H8.1V13.1001C8.1 12.5478 8.54771 12.1001 9.1 12.1001H14.9C15.4523 12.1001 15.9 12.5478 15.9 13.1001V20C15.9326 20 15.966 20 16.0001 20H18.0011L18.0001 10.4141ZM14.1 19.9998V13.9001H9.9V20H9.99996L13.8623 19.9998C13.9603 19.9998 14.038 19.9998 14.1 19.9998Z" fill="#E7946D"/>
</svg>
