<svg width="301" height="44" viewBox="0 0 301 44" fill="none" xmlns="http://www.w3.org/2000/svg">
<path d="M39.9737 0V43.4211H31.7236V24.812H8.75013V43.4211H0.5V0H8.75013V17.9267H31.7236V0H39.9737Z" fill="#E7946D"/>
<path d="M79.4474 27.633C79.4474 28.1663 79.4218 28.6928 79.3707 29.2128C79.3531 29.3916 79.3324 29.5684 79.3086 29.7432C79.2952 29.8428 79.281 29.9428 79.2657 30.0421C78.6948 33.732 76.8352 37.1003 74.0168 39.5495C71.1984 41.9986 67.6034 43.3702 63.8698 43.4209C63.7997 43.4209 63.7292 43.4209 63.6586 43.4209C63.1563 43.4209 62.6596 43.3977 62.1685 43.3512C54.1466 42.6008 47.8684 35.8493 47.8684 27.6315C47.8684 18.9113 54.938 11.8421 63.6586 11.8421C72.3793 11.8421 79.4474 18.9128 79.4474 27.633Z" fill="#E7946D"/>
<path opacity="0.5" d="M72.6549 23.2238C72.6522 23.1522 72.6476 23.0809 72.6411 23.0096C72.6411 23.0069 72.6411 23.0043 72.6411 23.002C72.638 22.9682 72.6346 22.9345 72.6311 22.9012V22.8916C72.6273 22.8556 72.6231 22.8199 72.6185 22.7839C72.6139 22.7479 72.6085 22.7111 72.6032 22.6743C72.5978 22.6375 72.5917 22.6015 72.5852 22.5651C72.5786 22.5287 72.574 22.5026 72.5679 22.4712C72.5679 22.4624 72.5648 22.4539 72.5629 22.4451C72.5564 22.4125 72.5499 22.38 72.5426 22.3478C72.5353 22.3156 72.5265 22.2753 72.5177 22.2393C72.5089 22.2033 72.5001 22.1676 72.4905 22.1316C72.4809 22.0956 72.4721 22.0638 72.4625 22.0297L72.4579 22.0144C72.4483 21.9822 72.4387 21.95 72.4288 21.9178C72.4188 21.8856 72.4062 21.8469 72.3943 21.8116C72.3824 21.7764 72.3701 21.7411 72.356 21.7058C72.3418 21.6706 72.3341 21.6457 72.3226 21.6158C72.3111 21.5859 72.2989 21.5541 72.2843 21.5234C72.2816 21.5161 72.2785 21.5085 72.2755 21.5012C72.259 21.4629 72.2421 21.4215 72.2245 21.382C72.2111 21.3506 72.1969 21.3195 72.1823 21.2885C72.1678 21.2575 72.1494 21.2184 72.1321 21.1835L72.1264 21.1724C72.1103 21.1394 72.0938 21.1068 72.0766 21.0747C72.0593 21.0425 72.0405 21.0061 72.0214 20.9723C72.0192 20.9678 72.0168 20.9635 72.0141 20.9593C71.9999 20.9332 71.9854 20.9076 71.97 20.8826C71.962 20.8677 71.9532 20.8528 71.944 20.8382C71.9321 20.8175 71.9194 20.7968 71.9056 20.7761C71.9007 20.7669 71.8949 20.7581 71.8892 20.7489C71.8731 20.7228 71.8566 20.6968 71.8393 20.6723C71.8355 20.6657 71.8317 20.6596 71.8271 20.6531C71.8091 20.6251 71.7887 20.5968 71.7711 20.5692L71.76 20.5531C71.7408 20.5247 71.7217 20.4967 71.701 20.4691C71.6983 20.4653 71.6956 20.4611 71.6925 20.4573C71.6734 20.4304 71.6542 20.404 71.6335 20.3775C71.6279 20.3696 71.6218 20.3616 71.6151 20.3534C71.5998 20.3327 71.5841 20.3124 71.568 20.2925C71.5496 20.2687 71.5297 20.2449 71.5113 20.2216C71.4929 20.1982 71.4764 20.1786 71.4584 20.1572C71.4091 20.0982 71.358 20.0399 71.3051 19.9824C70.3327 19.0897 69.0529 18.6074 67.7332 18.6362C66.4134 18.665 65.1559 19.2029 64.2235 20.1372C63.2911 21.0716 62.7559 22.3301 62.7298 23.6499C62.7038 24.9696 63.1889 26.2483 64.0837 27.2187C64.114 27.2467 64.1447 27.2743 64.1757 27.3011C64.2067 27.3279 64.2294 27.3479 64.2566 27.3705C64.2638 27.377 64.2715 27.3831 64.2792 27.3893C64.3026 27.4088 64.3259 27.4276 64.3497 27.4468L64.3692 27.4625C64.3991 27.4862 64.4294 27.5096 64.4597 27.5322L64.4635 27.5353C64.4896 27.5552 64.5156 27.5736 64.5402 27.5931C64.5482 27.5993 64.5563 27.6054 64.5647 27.6112C64.5946 27.6326 64.6249 27.6541 64.6555 27.6748H64.6582C64.6904 27.6966 64.723 27.7185 64.7559 27.7395C64.7889 27.7606 64.8157 27.7779 64.8464 27.7966C64.9127 27.8384 64.9802 27.8779 65.048 27.9155C65.066 27.9258 65.0836 27.9354 65.102 27.945L65.1342 27.9626C65.153 27.9729 65.1726 27.9829 65.1913 27.9925C65.2212 28.0082 65.2511 28.0231 65.2814 28.0381C65.3117 28.053 65.3308 28.0622 65.3557 28.0737L65.3964 28.0925L65.4424 28.1136L65.4554 28.1193L65.5048 28.1412L65.57 28.1688L65.6156 28.1875C65.6463 28.2002 65.6769 28.2121 65.708 28.2259L65.8229 28.2676C65.8613 28.2807 65.8961 28.2929 65.9329 28.306C65.9697 28.319 66.0031 28.329 66.0387 28.3397L66.0529 28.3439L66.1456 28.3711L66.1767 28.3795L66.2392 28.3964L66.3032 28.4129L66.3829 28.4321H66.3852L66.4733 28.4516L66.5044 28.4581L66.6056 28.478L66.6236 28.4811C66.6577 28.4876 66.6922 28.4934 66.7263 28.4987H66.7382C66.7734 28.5045 66.8091 28.5095 66.8443 28.5145C66.8796 28.5194 66.9068 28.5229 66.9382 28.5263L66.9765 28.5305C67.0087 28.5344 67.0406 28.5374 67.0727 28.5405H67.08L67.1785 28.5482H67.2069C67.241 28.5505 67.2755 28.5524 67.3096 28.5539L67.3928 28.557H67.4085H67.4541H67.543C68.0146 28.5575 68.4841 28.493 68.9381 28.3654C69.0147 28.3439 69.0903 28.3207 69.165 28.2956C69.2033 28.283 69.2416 28.2699 69.2772 28.2573C69.3892 28.2172 69.5 28.1729 69.6099 28.1243C69.7559 28.0595 69.9 27.9879 70.0407 27.9089C70.1465 27.8494 70.2506 27.7855 70.3531 27.7173C70.4213 27.6725 70.4883 27.6257 70.555 27.5771C70.6217 27.5284 70.6869 27.4782 70.7516 27.4261C70.8486 27.3494 70.9433 27.2655 71.036 27.1789C71.1035 27.116 71.1688 27.0521 71.2319 26.9872C71.2633 26.9543 71.2943 26.9209 71.325 26.8876C71.3557 26.8543 71.3856 26.8205 71.4151 26.7864C71.4446 26.7523 71.4737 26.7178 71.5021 26.6833C71.545 26.6322 71.5865 26.5795 71.6266 26.5251L71.6649 26.4718C71.7827 26.3122 71.891 26.1459 71.9892 25.9736C72.0219 25.9164 72.0532 25.8587 72.0831 25.8007C72.1034 25.7624 72.1214 25.7241 72.1417 25.6858C72.162 25.6474 72.18 25.6091 72.1973 25.5677C72.2695 25.4105 72.3335 25.2495 72.3889 25.0856C72.4165 25.004 72.4422 24.922 72.4656 24.8392C72.5947 24.38 72.6592 23.9051 72.6572 23.4281C72.6595 23.3595 72.658 23.2917 72.6549 23.2238ZM70.1055 25.1082C70.0863 25.1715 70.0468 25.288 69.9522 25.3294C69.8575 25.3707 69.7425 25.3087 69.7038 25.2876C69.6084 25.2351 69.493 25.1193 69.3658 24.9672L68.0366 25.9832C67.8354 26.1713 67.5564 26.2131 67.3556 26.1004C67.3138 26.0774 67.2759 26.0479 67.2433 26.0131L67.0245 25.7793L66.5749 25.2983C66.8984 25.3707 67.3142 25.3033 67.6204 25.1695C67.7791 25.1006 68.3042 24.8714 68.2973 24.4977C68.2934 24.2969 68.1386 24.0957 67.9485 24.011C67.9344 24.0045 67.9199 23.9988 67.9052 23.9938C67.7519 23.9413 67.6101 23.9773 67.5166 24.0011C67.231 24.0743 67.0494 24.2647 67.0383 24.2509C67.0271 24.2371 67.1126 24.18 67.2 24.0555C67.2371 24.004 67.269 23.9491 67.2954 23.8915C67.331 23.8196 67.3554 23.7427 67.3679 23.6634C67.3754 23.6032 67.3694 23.542 67.3502 23.4845C67.287 23.3005 67.098 23.2254 67.0528 23.2089C66.7819 23.1116 66.5247 23.281 66.4779 23.312C66.1935 23.4994 66.1177 23.8263 66.0648 24.0543C66.0282 24.2078 66.0152 24.366 66.0264 24.5234C66.031 24.5824 66.0372 24.6587 66.0514 24.7392L65.7405 24.4069L65.493 24.1421C65.2967 23.9321 65.3339 23.5787 65.5761 23.3526L66.6876 22.1117C66.6083 22.0355 66.5413 21.9476 66.4887 21.8511C66.4703 21.8128 66.412 21.6947 66.4637 21.6005C66.5155 21.5062 66.6293 21.4797 66.6937 21.4644C67.2686 21.3314 68.9001 21.2988 69.7103 21.584C69.7516 21.5981 69.7918 21.615 69.8307 21.6346C69.8997 21.6698 69.9624 21.716 70.0166 21.7714C70.106 21.8669 70.1699 21.9834 70.2024 22.1102C70.2948 22.4325 70.3255 22.8766 70.3174 23.3285C70.3113 24.0367 70.2082 24.7702 70.1055 25.1082Z" fill="#E36B2C"/>
<path fill-rule="evenodd" clip-rule="evenodd" d="M72.6548 23.2238C72.6517 23.1526 72.6471 23.0809 72.641 23.0096V23.002C72.6379 22.9682 72.6344 22.9345 72.631 22.9012V22.8916C72.6272 22.8556 72.6229 22.8199 72.6183 22.7839C72.6138 22.7479 72.6084 22.7111 72.603 22.6743C72.5977 22.6375 72.5915 22.6015 72.585 22.5651L72.583 22.5539C72.5775 22.5231 72.5732 22.4993 72.5678 22.4712C72.5678 22.4648 72.5662 22.4587 72.5646 22.4525C72.564 22.4501 72.5633 22.4476 72.5628 22.4451C72.5563 22.4125 72.5497 22.38 72.5425 22.3478L72.5374 22.3252C72.5313 22.2979 72.5244 22.2673 72.5176 22.2393C72.5087 22.2033 72.4999 22.1676 72.4903 22.1316C72.4808 22.0956 72.4719 22.0638 72.4624 22.0297L72.4577 22.0143C72.4482 21.9821 72.4386 21.9499 72.4286 21.9178C72.4187 21.8856 72.406 21.8469 72.3941 21.8116C72.3823 21.7764 72.37 21.7411 72.3558 21.7058C72.3476 21.6854 72.3416 21.6685 72.3357 21.652C72.3315 21.6401 72.3273 21.6284 72.3225 21.6158C72.311 21.5859 72.2987 21.5541 72.2841 21.5234C72.2815 21.5161 72.2784 21.5085 72.2753 21.5012C72.2693 21.4872 72.2632 21.4728 72.2571 21.4582C72.2464 21.4329 72.2355 21.407 72.2244 21.382C72.2109 21.3506 72.1968 21.3195 72.1822 21.2885C72.1676 21.2575 72.1492 21.2184 72.132 21.1835L72.1262 21.1724C72.1101 21.1394 72.0937 21.1068 72.0764 21.0746L72.0617 21.0469C72.0487 21.0224 72.035 20.9966 72.0212 20.9723C72.0191 20.9678 72.0167 20.9635 72.014 20.9593C71.9998 20.9332 71.9852 20.9076 71.9699 20.8826C71.9618 20.8677 71.953 20.8528 71.9438 20.8382C71.9319 20.8175 71.9193 20.7968 71.9055 20.7761C71.9015 20.7687 71.8969 20.7615 71.8923 20.7541L71.889 20.7489C71.8729 20.7228 71.8564 20.6968 71.8392 20.6722C71.8354 20.6657 71.8315 20.6596 71.8269 20.6531C71.8182 20.6395 71.8089 20.6258 71.7996 20.6122C71.7898 20.5978 71.78 20.5833 71.771 20.5692L71.7599 20.5531C71.7407 20.5247 71.7215 20.4967 71.7008 20.4691L71.6985 20.4657C71.6966 20.4629 71.6946 20.46 71.6924 20.4573C71.6732 20.4304 71.6541 20.404 71.6334 20.3775C71.6278 20.3696 71.6216 20.3616 71.615 20.3534C71.5997 20.3327 71.5839 20.3124 71.5678 20.2925C71.5576 20.2792 71.5469 20.266 71.5362 20.2529C71.5277 20.2424 71.5193 20.2319 71.5111 20.2216C71.4937 20.1995 71.4781 20.1808 71.4612 20.1607L71.4582 20.1572C71.4089 20.0982 71.3578 20.0399 71.3049 19.9824C71.2965 19.9725 71.2877 19.9629 71.2785 19.9533C70.8226 19.4509 70.2715 19.0442 69.657 18.7568C69.0425 18.4693 68.377 18.307 67.6992 18.2792C67.0214 18.2513 66.3448 18.3585 65.7088 18.5946C65.0728 18.8306 64.4901 19.1908 63.9946 19.6541C63.4991 20.1174 63.1007 20.6746 62.8225 21.2933C62.5444 21.912 62.392 22.5799 62.3744 23.258C62.3567 23.9361 62.4741 24.611 62.7197 25.2433C62.783 25.4063 62.8545 25.5657 62.9339 25.7208C62.8008 25.8407 62.6335 25.9903 62.4194 26.1778C62.051 26.5003 61.7941 26.7156 61.6103 26.8695C61.2366 27.1827 61.1656 27.2421 61.0757 27.434C60.8873 27.8365 60.8928 28.2304 60.8971 28.545C60.9014 28.8532 60.9046 29.0854 60.7235 29.1751C60.6483 29.2124 60.5944 29.2016 60.4804 29.1788C60.3775 29.1582 60.2258 29.1278 59.9654 29.1142C59.6082 29.0954 59.3211 29.0804 59.1989 29.2426C59.1418 29.3185 59.1525 29.3913 59.171 29.5173C59.1864 29.6221 59.2072 29.7637 59.1989 29.9745C59.1858 30.2953 59.1789 30.4616 59.0678 30.5663C58.9393 30.6871 58.7569 30.6437 58.5697 30.5991C58.3883 30.5559 58.2023 30.5116 58.0564 30.6145C57.8885 30.7335 57.8894 30.9667 57.8903 31.2033C57.8912 31.4425 57.8921 31.6852 57.7187 31.8168C57.5744 31.9263 57.4039 31.887 57.2251 31.8458C57.0397 31.8031 56.8455 31.7583 56.6625 31.8754C56.5023 31.9777 56.4811 32.1315 56.4566 32.3087C56.4326 32.4827 56.4054 32.6792 56.2409 32.8718C56.0619 33.0811 55.8586 33.1278 55.6627 33.1728C55.4651 33.2182 55.2749 33.2618 55.1248 33.4689C55.0826 33.5267 55.0799 33.5477 55.0128 34.0677C54.9971 34.1891 54.9779 34.3378 54.9539 34.5205L54.9479 34.5661C54.8756 35.1125 54.8545 35.2721 54.9489 35.4694C54.9914 35.559 55.0271 35.5932 55.2621 35.8178C55.2964 35.8506 55.3352 35.8877 55.3785 35.9293C55.6178 36.1584 55.7595 36.2989 55.847 36.3857C55.9813 36.5188 55.9878 36.5253 56.0236 36.5314C56.3559 36.5876 56.7816 36.191 57.6331 35.3978L57.6356 35.3954C58.4231 34.6594 59.2238 33.9366 60.0246 33.2138C60.7036 32.6009 61.3827 31.9879 62.0538 31.3668C62.8101 30.6669 62.9816 30.4919 63.16 30.31C63.3238 30.1429 63.4935 29.9699 64.128 29.3782C64.2055 29.3059 64.2804 29.2361 64.3528 29.1687C64.8239 28.73 65.1875 28.3914 65.4452 28.1142L65.5062 28.1412L65.5714 28.1688L65.617 28.1875L65.6449 28.1989C65.6663 28.2076 65.6877 28.2163 65.7094 28.2259L65.8243 28.2676C65.8627 28.2807 65.8975 28.2929 65.9343 28.306C65.9698 28.3185 66.0021 28.3283 66.0364 28.3386L66.0401 28.3397L66.0543 28.3439L66.147 28.3711L66.1781 28.3796L66.2406 28.3964L66.3046 28.4129L66.3843 28.4321H66.3866L66.4747 28.4516L66.5058 28.4581L66.6069 28.478L66.625 28.4811C66.6591 28.4876 66.6936 28.4934 66.7277 28.4987H66.7396C66.7727 28.5041 66.8061 28.5089 66.8392 28.5135L66.8457 28.5145C66.881 28.5194 66.9082 28.5229 66.9396 28.5263L66.9779 28.5305C67.0101 28.5344 67.0419 28.5374 67.0741 28.5405H67.0814L67.1799 28.5482H67.2083C67.2424 28.5505 67.2769 28.5524 67.311 28.5539L67.3942 28.557H67.5444C68.016 28.5575 68.4854 28.493 68.9395 28.3654C69.0161 28.3439 69.0917 28.3207 69.1663 28.2956C69.2047 28.283 69.243 28.2699 69.2786 28.2573C69.3906 28.2172 69.5014 28.1729 69.6113 28.1243C69.7573 28.0595 69.9014 27.9879 70.0421 27.9089C70.1479 27.8494 70.252 27.7855 70.3544 27.7173C70.4227 27.6725 70.4897 27.6257 70.5564 27.5771C70.6231 27.5284 70.6883 27.4782 70.753 27.4261C70.85 27.3494 70.9447 27.2655 71.0374 27.1789C71.1049 27.116 71.1701 27.0521 71.2333 26.9872C71.2647 26.9543 71.2957 26.9209 71.3264 26.8876C71.357 26.8543 71.3869 26.8205 71.4165 26.7864C71.446 26.7523 71.4747 26.7178 71.5035 26.6833C71.5461 26.6322 71.5876 26.5795 71.628 26.5251L71.6663 26.4718C71.7838 26.3121 71.8921 26.1457 71.9906 25.9736C72.0228 25.9164 72.0541 25.8587 72.0845 25.8007C72.0933 25.7837 72.1019 25.7667 72.1104 25.7496C72.1211 25.7284 72.1318 25.7071 72.1431 25.6858C72.1634 25.6474 72.1814 25.6091 72.1987 25.5677C72.2706 25.4103 72.3345 25.2494 72.3903 25.0856C72.4175 25.004 72.4432 24.922 72.467 24.8392C72.6149 24.3141 72.6783 23.7689 72.6548 23.2238ZM69.6473 25.0228C69.5531 25.0652 69.444 25.0056 69.4024 24.9829L69.399 24.981C69.3035 24.9285 69.1882 24.8128 69.0609 24.6606L67.731 25.6766C67.5578 25.8387 67.3263 25.8916 67.137 25.8299C67.0977 25.8176 67.0602 25.8002 67.0255 25.7781C66.9933 25.7577 66.9638 25.7332 66.9377 25.7053L66.2693 24.9906C66.5928 25.063 67.0086 24.9956 67.3148 24.8618C67.4735 24.7928 67.9986 24.5636 67.9917 24.19C67.9897 24.1277 67.9754 24.0665 67.9495 24.0099C67.9155 23.9354 67.867 23.8685 67.807 23.8129C67.7469 23.7573 67.6764 23.7142 67.5996 23.686C67.5255 23.6617 67.4471 23.6536 67.3696 23.6623C67.3163 23.6686 67.2635 23.679 67.2117 23.6933C67.0075 23.7457 66.8564 23.858 66.7829 23.9127C66.7536 23.9345 66.7366 23.9471 66.7334 23.9432C66.7283 23.9369 66.7434 23.9216 66.7696 23.8949C66.8007 23.8632 66.8477 23.8154 66.8952 23.7477C66.9322 23.6963 66.9642 23.6414 66.9906 23.5837L66.9944 23.5747C67.0329 23.4853 67.0905 23.3516 67.0542 23.2078C67.0518 23.1973 67.0489 23.1869 67.0454 23.1767C66.9822 22.9928 66.7932 22.9176 66.748 22.9012C66.477 22.8038 66.2195 22.9732 66.1731 23.0043C65.8887 23.1917 65.8128 23.5186 65.7599 23.7466C65.7233 23.9001 65.7104 24.0583 65.7216 24.2157C65.7258 24.2682 65.7312 24.3349 65.7423 24.4073C65.7423 24.4131 65.7436 24.4188 65.7449 24.4247C65.7451 24.426 65.7454 24.4272 65.7457 24.4284C65.746 24.4299 65.7463 24.4314 65.7465 24.433L65.1881 23.8359C64.9919 23.6259 65.0291 23.2725 65.2713 23.0464L66.3827 21.8055C66.3035 21.7293 66.2364 21.6414 66.1838 21.5449L66.183 21.543C66.1637 21.5029 66.108 21.3871 66.1589 21.2942C66.2103 21.2007 66.3227 21.1739 66.3874 21.1586L66.3889 21.1582C66.9638 21.0252 68.5953 20.9926 69.4055 21.2778C69.5211 21.3151 69.6262 21.3793 69.7121 21.4652C69.7608 21.5153 69.8015 21.5725 69.8328 21.6349C69.86 21.689 69.8818 21.7456 69.898 21.804C69.9988 22.1546 70.0256 22.6471 70.0103 23.1434C70.0053 23.3128 69.9953 23.4818 69.9815 23.6454C69.9409 24.1294 69.8666 24.5652 69.796 24.802C69.7796 24.8649 69.7401 24.9814 69.6473 25.0228ZM57.0482 34.6924L63.6838 28.4897C63.7689 28.4102 63.9023 28.4147 63.9818 28.4998C64.0613 28.5848 64.0568 28.7182 63.9717 28.7977L57.3361 35.0004C57.2511 35.0799 57.1177 35.0754 57.0382 34.9903C56.9587 34.9053 56.9631 34.7719 57.0482 34.6924Z" fill="white" fill-opacity="0.9"/>
<path d="M126.468 11.7104C130.377 11.7104 133.473 12.8505 135.756 15.1307C138.04 17.3723 139.181 20.754 139.181 25.2758V43.0152H131.925V26.2034C131.925 23.498 131.325 21.469 130.126 20.1163C128.926 18.725 127.204 18.0293 124.959 18.0293C122.521 18.0293 120.566 18.8409 119.096 20.4641C117.625 22.0487 116.89 24.3289 116.89 27.3048V43.0152H109.634V26.2034C109.634 23.498 109.034 21.469 107.834 20.1163C106.634 18.725 104.912 18.0293 102.668 18.0293C100.191 18.0293 98.2169 18.8216 96.7463 20.4062C95.3144 21.9907 94.5984 24.2903 94.5984 27.3048V43.0152H87.3421V12.0582H94.2501V16.0003C95.4112 14.609 96.8624 13.5461 98.604 12.8118C100.345 12.0775 102.281 11.7104 104.409 11.7104C106.731 11.7104 108.782 12.1548 110.562 13.0437C112.381 13.894 113.813 15.1693 114.858 16.8699C116.135 15.2466 117.78 13.9906 119.792 13.1017C121.805 12.1741 124.03 11.7104 126.468 11.7104Z" fill="#E7946D"/>
<path d="M178.75 27.7106C178.75 28.2131 178.711 28.928 178.634 29.8556H154.31C154.736 32.1358 155.839 33.9523 157.619 35.305C159.438 36.619 161.683 37.276 164.353 37.276C167.759 37.276 170.565 36.1552 172.771 33.9136L176.66 38.3775C175.267 40.0393 173.506 41.2954 171.377 42.1457C169.249 42.9959 166.849 43.4211 164.179 43.4211C160.773 43.4211 157.774 42.7447 155.181 41.392C152.588 40.0393 150.576 38.1649 149.144 35.7687C147.751 33.3339 147.054 30.5899 147.054 27.5367C147.054 24.5222 147.731 21.8168 149.086 19.4206C150.479 16.9858 152.395 15.0921 154.833 13.7394C157.271 12.3867 160.019 11.7104 163.076 11.7104C166.095 11.7104 168.784 12.3867 171.145 13.7394C173.545 15.0534 175.402 16.9278 176.718 19.3627C178.073 21.7588 178.75 24.5415 178.75 27.7106ZM163.076 17.5076C160.754 17.5076 158.78 18.2032 157.155 19.5945C155.568 20.9472 154.601 22.7637 154.252 25.0439H171.842C171.532 22.8023 170.584 20.9859 168.997 19.5945C167.411 18.2032 165.437 17.5076 163.076 17.5076Z" fill="#E7946D"/>
<path d="M204.18 11.7104C208.089 11.7104 211.224 12.8505 213.584 15.1307C215.945 17.4109 217.125 20.7926 217.125 25.2758V43.0152H209.869V26.2034C209.869 23.498 209.231 21.469 207.953 20.1163C206.676 18.725 204.857 18.0293 202.497 18.0293C199.826 18.0293 197.717 18.8409 196.169 20.4641C194.621 22.0487 193.847 24.3483 193.847 27.3628V43.0152H186.591V0H193.847V15.6524C195.047 14.3771 196.517 13.4109 198.259 12.7538C200.039 12.0582 202.013 11.7104 204.18 11.7104Z" fill="#E7946D"/>
<path d="M257.214 12.0582V43.0152H250.306V39.0731C249.145 40.4645 247.693 41.5466 245.952 42.3196C244.21 43.0539 242.333 43.4211 240.321 43.4211C236.18 43.4211 232.91 42.2809 230.51 40.0007C228.15 37.6818 226.969 34.2615 226.969 29.7397V12.0582H234.226V28.7541C234.226 31.5368 234.845 33.6238 236.083 35.0151C237.36 36.3678 239.16 37.0441 241.482 37.0441C244.075 37.0441 246.126 36.2518 247.635 34.6673C249.183 33.0441 249.957 30.7252 249.957 27.7106V12.0582H257.214Z" fill="#E7946D"/>
<path d="M284.768 11.7104C287.787 11.7104 290.477 12.3674 292.837 13.6814C295.237 14.9954 297.114 16.8505 298.468 19.2467C299.823 21.6429 300.5 24.4062 300.5 27.5367C300.5 30.6672 299.823 33.4499 298.468 35.8847C297.114 38.2809 295.237 40.136 292.837 41.45C290.477 42.764 287.787 43.4211 284.768 43.4211C282.64 43.4211 280.685 43.0539 278.905 42.3196C277.164 41.5853 275.693 40.4838 274.493 39.0152V43.0152H267.585V0H274.842V15.8264C276.08 14.4737 277.531 13.4495 279.195 12.7538C280.898 12.0582 282.756 11.7104 284.768 11.7104ZM283.956 37.218C286.626 37.218 288.812 36.3291 290.515 34.5513C292.257 32.7735 293.128 30.4353 293.128 27.5367C293.128 24.6381 292.257 22.2999 290.515 20.5221C288.812 18.7443 286.626 17.8554 283.956 17.8554C282.214 17.8554 280.647 18.2612 279.253 19.0728C277.86 19.8458 276.757 20.9666 275.945 22.4352C275.132 23.9038 274.725 25.6043 274.725 27.5367C274.725 29.4691 275.132 31.1696 275.945 32.6383C276.757 34.1069 277.86 35.247 279.253 36.0586C280.647 36.8316 282.214 37.218 283.956 37.218Z" fill="#E7946D"/>
</svg>
