<svg width="24" height="24" viewBox="0 0 24 24" fill="none" xmlns="http://www.w3.org/2000/svg">
<path d="M13.4348 2.4346C13.4348 1.64219 12.7924 0.999817 12 0.999817C11.2076 0.999815 10.5652 1.64219 10.5652 2.4346L10.5652 10.565L2.43478 10.565C1.64237 10.565 1 11.2074 1 11.9998C1 12.7922 1.64238 13.4346 2.43478 13.4346L10.5652 13.4346L10.5652 21.565C10.5652 22.3574 11.2076 22.9998 12 22.9998C12.7924 22.9998 13.4348 22.3574 13.4348 21.565L13.4348 13.4346L21.5652 13.4346C22.3576 13.4346 23 12.7922 23 11.9998C23 11.2074 22.3576 10.565 21.5652 10.565L13.4348 10.565L13.4348 2.4346Z" fill="white"/>
</svg>
