<svg width="20" height="20" viewBox="0 0 20 20" fill="none" xmlns="http://www.w3.org/2000/svg">
<path d="M9 15.6667C9 16.2191 9.44771 16.6667 10 16.6667C10.5523 16.6667 11 16.2191 11 15.6667V12.6667H13.6667C14.219 12.6667 14.6667 12.2191 14.6667 11.6667C14.6667 11.1143 14.219 10.6667 13.6667 10.6667H11V8.33333C11 7.78092 10.5523 7.33333 10 7.33333C9.44771 7.33333 9 7.78092 9 8.33333V10.6667H6.33333C5.78105 10.6667 5.33333 11.1143 5.33333 11.6667C5.33333 12.2191 5.78105 12.6667 6.33333 12.6667H9V15.6667Z" fill="#E7946D"/>
<path d="M0.999808 11.0001H1.99983V18C1.99983 19.103 2.89685 20 3.99987 20H16.0001C17.1032 20 18.0002 19.103 18.0002 18V11.0001H19.0002C19.198 11 19.3913 10.9414 19.5557 10.8315C19.7201 10.7216 19.8482 10.5655 19.9239 10.3828C19.9996 10.2001 20.0194 9.99902 19.9808 9.80507C19.9422 9.61112 19.847 9.43296 19.7072 9.29311L10.707 0.293198C10.6142 0.200253 10.504 0.126516 10.3827 0.076206C10.2614 0.0258958 10.1313 0 10 0C9.86867 0 9.73862 0.0258958 9.6173 0.076206C9.49598 0.126516 9.38578 0.200253 9.29299 0.293198L0.292793 9.29311C0.152981 9.43296 0.0577723 9.61112 0.0192039 9.80507C-0.0193645 9.99902 0.000438958 10.2001 0.0761106 10.3828C0.151782 10.5655 0.279924 10.7216 0.444338 10.8315C0.608751 10.9414 0.802054 11 0.999808 11.0001ZM10 2.41418L16.0001 8.41412L16.0011 18H14.0001C11.5002 17.9998 12.9653 17.9998 11.8623 17.9998L7.99996 18H3.99987V8.41412L10 2.41418Z" fill="#E7946D"/>
</svg>
